<svg width="64" height="64" viewBox="0 0 64 64" fill="none" xmlns="http://www.w3.org/2000/svg">
<path d="M20.1143 40.667C15.9917 41.5508 13 45.252 13 49.4678V59C13.0283 60.3038 14.9706 60.3259 15 59C15 59 15 49.4678 15 49.4678C15 46.1885 17.3271 43.3096 20.5332 42.6221L22 42.3078V49.1843C20.8385 49.5984 20 50.6981 20 52C20.1046 55.9499 25.8934 55.9615 26 51.9999C26 50.6981 25.1615 49.5984 24 49.1843V41.8793L27.5448 41.1199L31.168 46.5547C31.3535 46.833 31.6655 47 32 47C32.3345 47 32.6465 46.833 32.832 46.5547L36.4552 41.1199L40 41.8793V47.142C38.2797 47.5892 37 49.1413 37 51V54C37 54.5527 37.4477 55 38 55H39C40.314 54.9717 40.3168 53.0264 39 53C39 53 39 51 39 51C39 49.8975 39.897 49 41 49C42.103 49 43 49.8975 43 51V53C41.683 53.0173 41.6896 54.9824 43 55C43 55 44 55 44 55C44.5523 55 45 54.5527 45 54V51C45 49.1413 43.7203 47.5892 42 47.142V42.3078L43.4668 42.6221C46.6729 43.3096 49 46.1885 49 49.4678V58H19C17.6993 58.0082 17.6773 59.9837 19.0001 60C19 60 50 60 50 60C50.5523 60 51 59.5527 51 59V49.4678C51 45.252 48.0083 41.5508 43.8857 40.667L37 39.1914V34.4782C39.2567 32.9644 40.7841 30.4556 40.9703 27.586C43.4627 26.1047 45 23.4631 45 20.5283C45 19.9756 44.5523 19.5283 44 19.5283C43.4477 19.5283 43 19.9756 43 20.5283C43 22.3052 42.261 23.9476 41 25.1079V19C41 16.2432 38.7568 14 36 14H28C25.2432 14 23 16.2432 23 19V25.1079C21.739 23.9476 21 22.3052 21 20.5283V15C21 13.3457 22.3457 12 24 12C24.5523 12 25 11.5527 25 11C25 8.24316 27.2432 6 30 6H34C39.167 5.98418 43.2702 10.3875 43 15.5283C43 16.0811 43.4477 16.5283 44 16.5283C44.5523 16.5283 45 16.0811 45 15.5283V15C45 8.93457 40.0654 4 34 4H30C26.4492 4 23.5073 6.6582 23.0591 10.0889C20.7505 10.5303 19 12.5645 19 15V20.5283C19 23.4631 20.5373 26.1047 23.0297 27.586C23.2159 30.4556 24.7433 32.9644 27 34.4782V39.1914L20.1143 40.667ZM23 53C21.6859 52.9768 21.686 51.0231 23 51C24.3142 51.0233 24.314 52.977 23 53ZM35 39.6973L32 44.1973L29 39.6973V35.4749C30.8598 36.1677 33.1402 36.1677 35 35.4749C35 35.4749 35 39.6973 35 39.6973ZM25 27V19C25 17.3457 26.3457 16 28 16H36C37.6543 16 39 17.3457 39 19V27C38.6489 36.2714 25.3515 36.2732 25 27Z" fill="#8BCAD9"/>
</svg>
