<svg xmlns="http://www.w3.org/2000/svg" xml:space="preserve" viewBox="0 0 64 64" id="Examination">
  <path d="M-144.723-269.313A20.912 20.912 0 0 1-139-254.905c0 11.58-9.42 21-21 21a20.918 20.918 0 0 1-14.415-5.728l-1.373 1.454c4.041 3.815 9.262 5.989 14.788 6.227V-228h-8v2h18v-2h-8v-3.931c12.22-.526 22-10.628 22-22.975a22.907 22.907 0 0 0-6.268-15.781l-1.455 1.374z" fill="#8bcad9" class="color000000 svgShape"></path>
  <path d="m-187.194-245.109-.801 8.01a1.001 1.001 0 0 0 .995 1.1h6a1 1 0 0 0 .995-1.1l-.801-8.01A3.191 3.191 0 0 0-183-247.83v-2.341c.034-.012.064-.03.097-.043.056-.022.109-.047.162-.072a2.85 2.85 0 0 0 .322-.175c.049-.031.098-.06.145-.093.119-.084.23-.177.335-.277.022-.021.047-.038.068-.06.123-.124.233-.259.333-.403.028-.04.05-.083.076-.125a2.991 2.991 0 0 0 .254-.506c.045-.117.082-.237.112-.361.013-.055.029-.108.04-.164.034-.179.056-.362.056-.551s-.022-.372-.056-.551c-.01-.056-.026-.109-.04-.164a2.892 2.892 0 0 0-.366-.865c-.026-.042-.048-.085-.076-.125-.1-.144-.21-.279-.333-.403-.021-.022-.046-.039-.068-.06a2.968 2.968 0 0 0-.335-.277c-.047-.033-.096-.062-.145-.093a2.85 2.85 0 0 0-.322-.175c-.054-.025-.107-.05-.163-.073-.033-.013-.063-.031-.097-.043v-14.746l1.693.613 3.795 1.374 1.409 3.524a18.901 18.901 0 0 0-2.897 10.064c0 6.665 3.457 12.529 8.664 15.921.01.007.016.019.027.026.339.22.688.427 1.043.625.208.117.421.224.634.333.221.113.445.22.672.324.455.211.92.402 1.394.577.105.039.207.083.313.12.008.003.017.002.025.004a18.887 18.887 0 0 0 6.23 1.07c3.519 0 6.806-.979 9.636-2.653.017-.009.035-.012.051-.022.135-.08.267-.169.401-.253.338-.213.669-.435.993-.669.101-.073.204-.141.304-.216.013-.01.02-.025.032-.036.42-.317.825-.649 1.217-.999.014-.011.032-.016.045-.027.054-.048.099-.103.152-.152a19.604 19.604 0 0 0 1.385-1.408c.358-.404.697-.824 1.019-1.258.064-.086.13-.17.192-.256.334-.465.645-.945.937-1.44.036-.061.075-.119.11-.18.307-.534.588-1.083.843-1.648l.038-.078a18.798 18.798 0 0 0 1.528-5.627c.003-.028.01-.055.013-.082.069-.656.107-1.32.107-1.994 0-.565-.039-1.103-.08-1.599-.001-.008-.006-.015-.007-.023a19.008 19.008 0 0 0-6.036-12.3l-.403-2.769 6.022-3.441a1 1 0 0 0-.118-1.794l-22-9a1.001 1.001 0 0 0-.923.087l-20 13-.012.01-.018.01a.998.998 0 0 0-.18.163l-.01.014a1.02 1.02 0 0 0-.131.201c-.013.026-.02.053-.03.08a.933.933 0 0 0-.051.163c-.007.033-.009.067-.012.101-.003.033-.012.064-.012.097v16.184c-1.161.414-2 1.514-2 2.816s.839 2.402 2 2.816v2.354a3.186 3.186 0 0 0-2.197 2.72zm5.089 7.109h-3.79l.691-6.91c.062-.621.58-1.09 1.204-1.09s1.142.469 1.204 1.09l.691 6.91zm16.084-36.44.023-.005a21.06 21.06 0 0 1 1.546-.343c.52-.094 1.036-.167 1.549-.217.994-.098 1.92-.168 2.785-.214.15-.008.287-.011.433-.018.275-.012.553-.026.815-.034.189-.005.364-.006.546-.009.204-.004.416-.009.612-.01.227-.001.438.003.654.006.136.002.28.001.412.004.222.005.429.015.64.023.113.005.234.007.344.013.262.013.509.03.753.048l.145.009c.269.021.524.046.77.072l.05.005c2.067.226 3.326.618 4.013.903l.018.007.66 4.534c-.038-.015-.084-.029-.122-.043-.137-.052-.288-.102-.434-.153a20.436 20.436 0 0 0-.686-.228c-.165-.051-.339-.099-.514-.148a21.436 21.436 0 0 0-2.288-.516 25.749 25.749 0 0 0-.647-.106 29.02 29.02 0 0 0-1.052-.132c-.23-.025-.455-.051-.695-.072a30.59 30.59 0 0 0-1.229-.073c-.236-.011-.463-.026-.707-.031a34.19 34.19 0 0 0-1.497.007c-.215.004-.418 0-.639.009-.746.029-1.521.078-2.335.158-.726.072-1.426.174-2.108.296-.226.04-.439.093-.66.139l-.274.057c-.019.003-.038-.001-.057.003-.069.015-.137.036-.206.052-.263.059-.527.117-.783.183-.204.052-.399.11-.599.166l-.318.093a26.066 26.066 0 0 0-1.476.477c-.066.023-.13.05-.196.074-.332.122-.657.247-.973.377-.174.071-.348.141-.517.215-.047.02-.092.043-.138.064-.318.141-.625.284-.925.43-.179.087-.359.172-.531.261l-.043.02-.008.007c-.301.156-.586.312-.868.471-.161.091-.327.18-.482.271-.302.178-.583.355-.861.532-.115.073-.237.146-.347.219l-.071.045-1.242-3.104c.114-.081.227-.151.341-.23 3.215-2.233 6.37-3.767 9.419-4.564zm7.56 11.747c1.125.534 2.115-.455 3.069-1.411.646-.648 1.619-1.64 2.152-1.514.589.125 1.396 1.569 1.216 2.886-.285 2.083-3.309 3.635-5.272 4.17-.568.155-1.024.215-1.466.274-.781.104-1.589.21-2.731.803-.993.515-1.531 1.025-1.923 1.398-.378.359-.489.455-.781.503-.81.132-1.61-.473-2.386-1.059-.86-.65-1.836-1.387-2.901-.847-1.123.568-1.117 1.958-1.113 3.075 0 .188.001.424-.006.634-.471-.369-1.147-1.154-1.482-2.139-.726-2.138.516-4.497.914-5.169.394-.665.761-1.053 1.084-1.396.485-.513.986-1.044 1.053-2.047.066-.991-.328-1.741-.785-2.334l.133-.061a25.417 25.417 0 0 1 4.095-1.424l.058-.013c.043.103.085.209.128.317.358.901.805 2.022 2.085 2.406 1.228.372 2.292-.235 3.069-.677.22-.125.533-.303.716-.365.092.273.087.931.084 1.303-.007 1.037-.017 2.211.99 2.687zm-9.106 22.894c-.203-.101-.407-.199-.605-.307.218-.172.459-.346.697-.517 1.151-.831 2.583-1.865 2.478-3.484-.074-1.148-.875-1.821-1.46-2.312-.201-.169-.505-.425-.545-.501.046-.358 1.407-1.313 2.885-1.13.665.082 1.008.368 1.661.955.682.613 1.53 1.376 3.1 1.985.954.37 1.691.491 2.179.571l.217.037c-.239.806-1.905 2.859-4.292 3.494-.537.143-1.014.182-1.476.219-.904.073-1.839.149-2.881.958a4.809 4.809 0 0 0-.66.619 16.083 16.083 0 0 1-1.298-.587zm16.998-1.079c-.328-.585-.524-1.297-.387-1.901.178-.79.358-.975 1.027-1.666.412-.424.976-1.006 1.711-1.934.124-.156.34-.315.57-.485.757-.559 1.901-1.404 1.639-3.515-.193-1.558-.759-2.152-1.213-2.629-.33-.347-.568-.597-.729-1.43-.249-1.292.347-2.893 1.064-3.805.428-.544.807-.748 1.002-.757l.029-.001c.594 0 1.667.855 2.793 2.779.03.406.061.811.061 1.221 0 3.545-1.126 6.983-3.163 9.84-.025.035-.052.068-.077.102-.311.429-.642.845-.993 1.246-.048.055-.099.108-.147.162a17.65 17.65 0 0 1-1.068 1.087l-.109.099a3.32 3.32 0 0 0-1.108.785c-.101.11-.193.227-.282.357-.053.039-.105.08-.159.119-.152.111-.305.221-.461.326zm6.707-19.399c-.649-.473-1.36-.76-2.117-.72-.873.042-1.73.568-2.479 1.52-.999 1.271-1.836 3.439-1.455 5.418.271 1.409.81 1.975 1.244 2.431.352.37.565.594.677 1.497.118.95-.203 1.187-.843 1.66-.31.228-.66.487-.948.851-.674.85-1.177 1.368-1.581 1.785-.747.77-1.24 1.279-1.542 2.616-.263 1.161.068 2.38.619 3.351a16.87 16.87 0 0 1-7.713 1.87c-1.38 0-2.715-.183-4-.495.42-.215.836-.253 1.434-.302.523-.042 1.117-.09 1.828-.28 2.524-.67 4.646-2.638 5.437-4.235.497-1.003.4-1.703.231-2.112-.352-.854-1.146-.984-1.783-1.089-.455-.075-1.021-.168-1.781-.463-1.228-.476-1.867-1.051-2.485-1.606-.706-.635-1.435-1.291-2.754-1.454-2.109-.26-4.885 1.013-5.115 2.871-.137 1.117.661 1.788 1.244 2.277.455.382.733.634.75.91.034.516-.862 1.163-1.653 1.734-.445.321-.89.654-1.279 1.018-4.277-3.09-7.075-8.106-7.075-13.774 0-3.335.964-6.558 2.789-9.331.129-.093.27-.189.407-.284.176-.122.347-.242.536-.366.188-.123.396-.247.597-.371.196-.121.385-.241.592-.361.133-.077.281-.152.42-.229.41.462.658.823.628 1.279-.018.265-.094.364-.512.807-.356.377-.843.893-1.351 1.75-.651 1.099-2.06 3.965-1.086 6.831.515 1.517 1.721 2.995 2.87 3.514.331.15.622.203.867.203.244 0 .443-.053.594-.115 1.06-.44 1.056-1.666 1.052-2.748-.001-.318-.003-.849.051-1.16.22.129.531.364.758.535.956.722 2.267 1.711 3.92 1.436.908-.151 1.376-.596 1.83-1.025.34-.323.725-.688 1.467-1.073.832-.432 1.353-.5 2.073-.596a12.238 12.238 0 0 0 1.73-.327c2.288-.624 6.28-2.553 6.728-5.83.277-2.033-.878-4.71-2.784-5.114-1.591-.336-2.917.991-3.982 2.059-.188.189-.427.428-.642.624-.003-.162-.001-.331 0-.471.008-1.097.019-2.463-1.083-3.1-.989-.57-1.982-.005-2.708.409-.662.376-1.122.619-1.505.5-.319-.096-.49-.446-.798-1.219a24.965 24.965 0 0 1 1.642-.231c7.548-.743 11.906 1.071 13.43 1.887a.941.941 0 0 0 .256.094c.017.004.034.003.051.005.058.009.115.02.18.019a17.048 17.048 0 0 1 4.122 6.72zm-20.032-23.599 19.618 8.025-3.536 2.021-.202-1.208c-.017-.1-.069-.186-.114-.274-.023-.045-.029-.098-.058-.139a1.004 1.004 0 0 0-.343-.304c-2.687-1.437-7.996-1.888-14.57-1.239-4.661.46-9.538 2.542-14.495 6.189l-.054.042-2.013-.729-2.111-.764 17.878-11.62zM-184-254c.551 0 1 .449 1 1s-.449 1-1 1-1-.449-1-1 .449-1 1-1zM112.293-285.707l-3 3-8 8-3 3 1.414 1.414 2.265-2.265 2.86 3.087a.998.998 0 0 0 1.314.133l4.949-3.536a.983.983 0 0 0 .232-.232l3.535-4.95a.998.998 0 0 0-.175-1.35l-3.206-2.663 1.518-1.518 5 5V-276h2v-2h2v-2h-2.586l-5.707-5.707a.998.998 0 0 0-1.413 0zm.402 7.246-2.897 4.058-4.098 2.927-2.313-2.497 6.675-6.675 2.633 2.187zM156-280v-4c0-1.103-.897-2-2-2h-10c-1.103 0-2 .897-2 2v4c0 1.103.897 2 2 2h2.586l-2.293 2.293 1.414 1.414 3.293-3.293 3.293 3.293 1.414-1.414-2.293-2.293H154c1.103 0 2-.897 2-2zm-1.999 0H150v-4h4l.001 4zM144-284h4v4h-4v-4zM132-280c-3.859 0-7 3.14-7 7s3.141 7 7 7 7-3.14 7-7-3.141-7-7-7zm0 12c-2.757 0-5-2.243-5-5s2.243-5 5-5 5 2.243 5 5-2.243 5-5 5z" fill="#8bcad9" class="color000000 svgShape"></path>
  <path d="M149.707-271.707c-1.445-1.446-3.969-1.446-5.414 0L136.586-264h-9.199l-8.719-7.926a3.825 3.825 0 0 0-5.293.137 3.791 3.791 0 0 0-1.121 2.784 3.799 3.799 0 0 0 1.23 2.737l9.838 9.081-9.236 20.781A1 1 0 0 0 115-235h4.613l-1.085 3.255a4.316 4.316 0 0 0 .6 3.932 4.317 4.317 0 0 0 3.54 1.813 4.384 4.384 0 0 0 4.087-2.832l2.313-6.168h5.864l2.313 6.168a4.384 4.384 0 0 0 4.087 2.832c1.42 0 2.71-.661 3.54-1.813a4.316 4.316 0 0 0 .6-3.932L144.387-235H149a1 1 0 0 0 .914-1.406l-9.259-20.834 9.052-9.052a3.833 3.833 0 0 0 0-5.415zM134.586-262 132-259.414 129.414-262h5.172zm-14.307 25h-3.74L124-253.788v5.625L120.279-237zm13.903 0h-4.363l1.875-5h.613l1.875 5zm9.539 0L140-248.162v-5.626L147.461-237h-3.74zm4.572-30.707-9.538 9.538-.462.461A1 1 0 0 0 138-257v9c0 .107.018.214.052.316l5.523 16.571a2.34 2.34 0 0 1-.325 2.13 2.338 2.338 0 0 1-1.918.982c-.98 0-1.87-.617-2.214-1.534l-5.182-13.817a1 1 0 0 0-.937-.649h-2c-.417 0-.79.259-.937.649l-5.182 13.817a2.375 2.375 0 0 1-2.214 1.534c-.77 0-1.468-.358-1.918-.982a2.34 2.34 0 0 1-.325-2.13l5.523-16.571c.034-.102.052-.209.052-.316v-9c0-.279-.116-.545-.321-.735l-.473-.437h-.001l-10.365-9.567a1.826 1.826 0 0 1-.041-2.648 1.825 1.825 0 0 1 2.522-.061l8.989 8.171 4.982 4.982a.997.997 0 0 0 1.414 0l5-5 8-8a1.83 1.83 0 0 1 2.589 2.588zM253-286h-58a1 1 0 0 0-1 1v58a1 1 0 0 0 1 1h58a1 1 0 0 0 1-1v-58a1 1 0 0 0-1-1zm-1 58h-56v-56h56v56z" fill="#8bcad9" class="color000000 svgShape"></path>
  <path d="M200-237c2.757 0 5 2.243 5 5a1 1 0 0 0 1 1h36a1 1 0 0 0 1-1c0-2.757 2.243-5 5-5a1 1 0 0 0 1-1v-36a1 1 0 0 0-1-1c-2.757 0-5-2.243-5-5a1 1 0 0 0-1-1h-36a1 1 0 0 0-1 1c0 2.757-2.243 5-5 5a1 1 0 0 0-1 1v36a1 1 0 0 0 1 1zm1-36.071a7.016 7.016 0 0 0 5.929-5.929h34.143a7.015 7.015 0 0 0 5.929 5.929v34.143a7.016 7.016 0 0 0-5.929 5.929h-34.143a7.015 7.015 0 0 0-5.929-5.929v-34.143z" fill="#8bcad9" class="color000000 svgShape"></path>
  <path d="M207-267h34a1 1 0 0 0 1-1v-4a1 1 0 0 0-1-1h-34a1 1 0 0 0-1 1v4a1 1 0 0 0 1 1zm1-4h32v2h-32v-2zM233.994-260a.998.998 0 0 0-.588-.914l-9-4a1.001 1.001 0 0 0-.813 0l-9 4a1 1 0 0 0 .09 1.862l3.316 1.105V-255c0 2.061 3.11 3 6 3s6-.939 6-3v-2.946l2-.667v6.198l-1.707 1.707 1.414 1.414 1.293-1.293 1.293 1.293 1.414-1.414-1.706-1.706V-260h-.006zm-5.985 4.946c-.135.3-1.524 1.054-4.009 1.054s-3.874-.754-4-1v-2.279l3.684 1.228a1.01 1.01 0 0 0 .632 0l3.687-1.229.006 2.226zm-4.009-3-6.237-2.079 6.237-2.772 6.237 2.772-6.237 2.079zM214-240h20v2h-20zM210-246h28v2h-28zM43-251c0-2.206-1.794-4-4-4s-4 1.794-4 4 1.794 4 4 4 4-1.794 4-4zm-6 0c0-1.103.897-2 2-2s2 .897 2 2-.897 2-2 2-2-.897-2-2z" fill="#8bcad9" class="color000000 svgShape"></path>
  <path d="M46.087-247.302A7.946 7.946 0 0 0 47-251c0-4.411-3.589-8-8-8s-8 3.589-8 8c0 1.334.333 2.591.913 3.698l-3.787 6.816a1 1 0 0 0 1.117 1.456l3.451-.863 1.6 1.6a.995.995 0 0 0 .951.263.999.999 0 0 0 .713-.683l1.342-4.473c.549.119 1.116.186 1.7.186s1.151-.067 1.7-.186l1.342 4.473A1.003 1.003 0 0 0 43-238a1 1 0 0 0 .707-.293l1.6-1.6 3.451.863a1 1 0 1 0 1.117-1.456l-3.788-6.816zm-10.674 3.445-.89 2.966-.816-.816a1 1 0 0 0-.95-.263l-1.764.441 2.207-3.973.017.015c.305.32.637.612.991.878l.058.043c.357.263.735.498 1.134.7l.013.009zm1.545-1.508a6.028 6.028 0 0 1-2.441-1.66l-.012-.014a6.068 6.068 0 0 1-.588-.788A5.952 5.952 0 0 1 33-251c0-3.309 2.691-6 6-6s6 2.691 6 6a5.952 5.952 0 0 1-.917 3.173 6.045 6.045 0 0 1-.588.788l-.012.014A6.015 6.015 0 0 1 39-245a5.96 5.96 0 0 1-2.042-.365zm8.285 3.395a1.005 1.005 0 0 0-.95.263l-.816.816-.89-2.966c.005-.002.009-.006.014-.009a8.017 8.017 0 0 0 1.134-.7l.058-.043c.354-.266.686-.558.991-.878l.017-.015 2.207 3.973-1.765-.441z" fill="#8bcad9" class="color000000 svgShape"></path>
  <path d="M57-286H12c-2.757 0-5 2.243-5 5v45H3a1 1 0 0 0-1 1v4c0 2.757 2.243 5 5 5h42c.006 0 .012-.003.018-.004a5.017 5.017 0 0 0 3.345-1.296A5.012 5.012 0 0 0 54-231v-44h7a1 1 0 0 0 1-1v-5c0-2.757-2.243-5-5-5zM7-228c-1.654 0-3-1.346-3-3v-3h40v3a4.98 4.98 0 0 0 1.002 3H7zm45-3c0 .843-.358 1.652-.982 2.22a2.962 2.962 0 0 1-2.168.765 2.727 2.727 0 0 1-.303-.031 2.693 2.693 0 0 1-.284-.057c-.076-.019-.149-.044-.222-.069a2.905 2.905 0 0 1-.404-.171c-.97-.528-1.636-1.611-1.636-2.828V-235a1 1 0 0 0-1-1H9v-45c0-1.654 1.346-3 3-3h41.002c-.029.038-.05.083-.078.122-.059.083-.11.171-.164.258a5.018 5.018 0 0 0-.412.818 4.74 4.74 0 0 0-.184.593c-.024.095-.053.186-.071.282A5.05 5.05 0 0 0 52-281v50zm8-46h-6v-4c0-1.654 1.346-3 3-3s3 1.346 3 3v4z" fill="#8bcad9" class="color000000 svgShape"></path>
  <path d="M22.684-276.051 26-274.946V-272c0 2.061 3.11 3 6 3s6-.939 6-3v-2.946l2-.667v6.198l-1.707 1.707 1.414 1.414L41-267.586l1.293 1.293 1.414-1.414L42-269.414V-277h-.006a.998.998 0 0 0-.588-.914l-9-4a1.001 1.001 0 0 0-.813 0l-9 4a1 1 0 0 0 .091 1.863zm13.325 3.997c-.134.3-1.525 1.054-4.009 1.054s-3.875-.754-4-1v-2.279l3.684 1.228a1.005 1.005 0 0 0 .632 0l3.687-1.229.006 2.226zM32-279.906l6.238 2.772-6.238 2.08-6.238-2.079L32-279.906zM19-265h20v2H19zM16-259h13v2H16zM13-253h16v2H13zM11-247h18v2H11zM-89-244h24v2.996a1 1 0 0 0 .662.941 34.958 34.958 0 0 0 11.323 2.059c.174.002.348.004.522.004.834 0 1.665-.037 2.493-.096v3.28A2.996 2.996 0 0 0-52-232v5a1 1 0 0 0 1 1h4a1 1 0 0 0 1-1v-5a2.996 2.996 0 0 0-2-2.816v-3.474a35.023 35.023 0 0 0 7.338-1.773c.397-.143.662-.52.662-.941v-11.68l5.406-2.403a1 1 0 0 0-.105-1.867L-42-259.259V-281c0-2.757-2.243-5-5-5h-38c-2.757 0-5 2.243-5 5v29h-3a1 1 0 0 0-1 1v2c0 2.757 2.243 5 5 5zm41 16h-2v-4c0-.551.449-1 1-1s1 .449 1 1v4zm0-33.154-5.699-1.8a1.015 1.015 0 0 0-.664.021L-72.188-256H-84v-24h36v18.846zm-4.985 21.15A32.957 32.957 0 0 1-63-241.715v-8.903l1.511.557 8.143 3c.112.04.229.061.346.061.005 0 .01-.003.016-.003.134-.002.266-.028.391-.083l2.594-1.153v8.144c-.99.074-1.985.107-2.986.091zM-42-241.715a32.966 32.966 0 0 1-6 1.403v-8.816l6-2.667v10.08zm.595-12.532c-.001 0-.001 0 0 0l-7.267 3.229-4.704-3.763-1.249 1.562 3.895 3.116-2.305 1.025-10.619-3.913a.069.069 0 0 1-.008-.003l-5.513-2.031 15.21-5.915 16.146 5.099-3.586 1.594zM-88-281c0-1.654 1.346-3 3-3h38c1.654 0 3 1.346 3 3v21.109l-2-.632V-281a1 1 0 0 0-1-1h-38a1 1 0 0 0-1 1v26a1 1 0 0 0 1 1h12.821l5.429 2H-88v-29zm-4 31h27v4h-24c-1.654 0-3-1.346-3-3v-1z" fill="#8bcad9" class="color000000 svgShape"></path>
  <path d="M-66-273a6.952 6.952 0 0 0-5.972 3.36l1.707 1.042C-69.347-270.102-67.752-271-66-271s3.347.898 4.265 2.402l1.707-1.042A6.953 6.953 0 0 0-66-273z" fill="#8bcad9" class="color000000 svgShape"></path>
  <path d="M-66-275c2.849 0 5.471 1.315 7.192 3.608l1.6-1.201C-59.312-275.394-62.516-277-66-277s-6.688 1.606-8.792 4.407l1.6 1.201C-71.471-273.685-68.849-275-66-275zM-66-269c-1.654 0-3 1.346-3 3h2c0-.551.449-1 1-1s1 .449 1 1h2c0-1.654-1.346-3-3-3zM-67-264h2v2h-2zM-81-242h2v2h-2zM-81-238h2v2h-2zM-81-234h2v2h-2zM-81-230h2v2h-2zM-76-230h2v2h-2zM-72-230h2v2h-2zM-68-230h2v2h-2zM-64-230h2v2h-2zM-60-230h2v2h-2zM-56-230h2v2h-2zM-36-250h2v2h-2zM-36-246h2v2h-2zM-36-242h2v2h-2zM-36-238h2v2h-2zM-36-234h2v2h-2zM-36-230h2v2h-2zM-40-230h2v2h-2zM-44-230h2v2h-2zM-40.293 9.293a.999.999 0 0 0-1.414 0L-46 13.586V3a1 1 0 0 0-1-1h-46a1 1 0 0 0-1 1v58a1 1 0 0 0 1 1h46a1 1 0 0 0 1-1V46.414l8.707-8.707c.009-.009.012-.022.021-.032a.98.98 0 0 0 .173-.261c.01-.021.022-.04.03-.062.005-.013.013-.023.017-.036l3-9a.999.999 0 0 0-1.265-1.264l-9 3c-.012.004-.022.012-.034.016-.023.009-.043.021-.066.032a.982.982 0 0 0-.258.171c-.01.009-.023.012-.033.022L-46 31.586v-3.172l11.707-11.707a.999.999 0 0 0 0-1.414l-6-6zM-92 4h4v56h-4V4zm44.293 41.293L-53 50.586-54.586 49-41 35.414-39.414 37l-8.293 8.293zM-59 47.414-54.414 52l-1.293 1.293c-1.226 1.225-3.36 1.225-4.586 0a3.247 3.247 0 0 1 0-4.586L-59 47.414zm15-15L-42.414 34-56 47.586-57.586 46l11.293-11.293L-44 32.414zm5.563 2.734-1.856-1.855-1.856-1.856 5.568-1.856-1.856 5.567zM-48 33.586l-11.707 11.707-2 2a5.25 5.25 0 0 0 0 7.414c.99.99 2.307 1.536 3.707 1.536s2.717-.546 3.707-1.536l2-2L-48 48.414V60h-38V4h38v11.586l-3 3V7a1 1 0 0 0-1-1h-30a1 1 0 0 0-1 1v16a1 1 0 0 0 1 1h25.586l-9.293 9.293a.999.999 0 0 0 0 1.414l6 6a.997.997 0 0 0 1.414 0L-48 30.414v3.172zM-54.414 22H-81V8h28v12.586L-54.414 22zm6.707 5.293L-59 38.586-63.586 34-62 32.414l1.293 1.293 1.414-1.414L-60.586 31-59 29.414l1.293 1.293 1.414-1.414L-57.586 28-56 26.414l2.293 2.293 1.414-1.414L-54.586 25l1.293-1.293.293-.293 1.293 1.293 1.414-1.414L-51.586 22l.293-.293L-50 20.414l1.293 1.293 1.414-1.414L-48.586 19-47 17.414l2.293 2.293 1.414-1.414L-45.586 16-44 14.414l1.293 1.293 1.414-1.414L-42.586 13-41 11.414-36.414 16l-11.293 11.293z" fill="#8bcad9" class="color000000 svgShape"></path>
  <path d="M-71 44v-3c0-1.654-1.346-3-3-3h-4c-1.654 0-3 1.346-3 3v3a1 1 0 0 0-1 1v12a1 1 0 0 0 1 1h10a1 1 0 0 0 1-1V45a1 1 0 0 0-1-1zm-8-3c0-.552.449-1 1-1h4c.551 0 1 .448 1 1v3h-6v-3zm7 15h-8V46h8v10zM-37 46h2v15h-2zM-37 40h2v4h-2zM-43 51h2v10h-2zM-43 46h2v3h-2zM-81 33h2v2h-2zM-77 33h2v2h-2zM-73 33h2v2h-2zM-132.598 34.642A4.972 4.972 0 0 0-131 31a5.01 5.01 0 0 0-4-4.899V3a1 1 0 0 0-1-1h-48a1 1 0 0 0-1 1v23.101A5.009 5.009 0 0 0-189 31c0 1.44.621 2.729 1.598 3.642-1.541.853-2.598 2.476-2.598 4.358v23h2v-7h5v7h2V51h4v9c0 1.103.897 2 2 2h2c1.103 0 2-.897 2-2v-9h2v9c0 1.103.897 2 2 2h2c1.103 0 2-.897 2-2v-9h1a1 1 0 0 0 1-1v-5h2v5a1 1 0 0 0 1 1h1v9c0 1.103.897 2 2 2h2c1.103 0 2-.897 2-2v-9h2v9c0 1.103.897 2 2 2h2c1.103 0 2-.897 2-2v-9h4v11h2v-7h5v7h2V39c0-1.882-1.057-3.505-2.598-4.358zM-133 31c0 1.654-1.346 3-3 3s-3-1.346-3-3c0-.25.04-.49.098-.722.003-.01.01-.017.012-.027a3.005 3.005 0 0 1 .975-1.541c.046-.038.09-.078.137-.113a3.06 3.06 0 0 1 .474-.286 2.57 2.57 0 0 1 .548-.202c.068-.018.134-.039.204-.053.179-.034.363-.056.552-.056 1.654 0 3 1.346 3 3zm-8 12h-4a1.001 1.001 0 0 1 0-2h7v2h-3zm-1-4h-3c-1.654 0-3 1.346-3 3 0 .352.072.686.184 1H-156V31h15c0 1.44.621 2.729 1.598 3.642-1.541.853-2.598 2.476-2.598 4.358zm-20 4v-9h-2v9h-4v-9.938l.992-7.938-1.984-.248-.641 5.124h-3.177l1.375-7.889A2.472 2.472 0 0 1-169 20h11c.197 0 .391-.059.555-.168l7.115-4.743a.996.996 0 0 1 1.449.385l.264.527c.209.419.096.936-.27 1.228l-8.737 6.99A.999.999 0 0 0-158 25v18h-4zm-10.184 0c.112-.314.184-.648.184-1 0-1.654-1.346-3-3-3h-3c0-1.882-1.057-3.505-2.598-4.358A4.972 4.972 0 0 0-179 31h4.466c.058.099.117.198.192.287.381.453.939.713 1.531.713H-170v11h-2.184zM-179 43h-3v-2h7a1.001 1.001 0 0 1 0 2h-4zm13-28c0-1.654 1.346-3 3-3s3 1.346 3 3-1.346 3-3 3-3-1.346-3-3zm-17-11h46v22.101c-.015.003-.028.009-.043.012a5.027 5.027 0 0 0-.779.242c-.069.027-.137.052-.204.082-.24.107-.47.232-.689.375-.071.046-.136.097-.204.146-.165.12-.323.25-.473.39-.072.067-.144.131-.212.202a5.045 5.045 0 0 0-.847 1.218c-.04.078-.09.15-.126.231H-156v-3.52l8.362-6.689a3.016 3.016 0 0 0 .81-3.685l-.264-.527a3.004 3.004 0 0 0-4.348-1.155L-158.303 18h-.723A4.948 4.948 0 0 0-158 15c0-2.757-2.243-5-5-5s-5 2.243-5 5c0 1.13.391 2.162 1.026 3H-169c-2.205 0-4.102 1.646-4.41 3.798L-174.667 29h-4.767a5.065 5.065 0 0 0-.257-.503.998.998 0 0 0-.336-.347 1.018 1.018 0 0 0-.221-.429 5.144 5.144 0 0 0-.661-.624 5.063 5.063 0 0 0-.584-.409l-.053-.028a4.945 4.945 0 0 0-.596-.287c-.054-.022-.107-.044-.162-.064a4.99 4.99 0 0 0-.676-.2l-.021-.006V4zm-1 24a2.93 2.93 0 0 1 2 .784V29c0 .122.022.238.062.346.007.019.022.033.03.051.038.086.081.171.14.242.029.034.068.057.101.087.05.046.096.097.155.132.077.046.166.073.255.098.023.006.042.02.065.025l.022.069c.11.31.17.627.17.95 0 1.654-1.346 3-3 3s-3-1.346-3-3 1.346-3 3-3zm-4 11c0-1.654 1.346-3 3-3h2c1.654 0 3 1.346 3 3h-3a1 1 0 0 0-1 1v4a1 1 0 0 0 1 1h3v4h-8V39zm5 14h-5v-2h5v2zm10 7h-2v-9h2v9zm8 0h-2v-9h2v9zm2-11h-15v-4h15v4zm18-4h3v4h-15v-4h12zm-7.999 15H-155v-9h2l.001 9zm8 0H-147v-9h2l.001 9zM-140 45h3a1 1 0 0 0 1-1v-4a1 1 0 0 0-1-1h-3c0-1.654 1.346-3 3-3h2c1.654 0 3 1.346 3 3v10h-8v-4zm3 8v-2h5v2h-5z" fill="#8bcad9" class="color000000 svgShape"></path>
  <path d="M-145 14h2v2h-2zM-145 10h2v2h-2zM-145 6h2v2h-2zM-36 111.184V105a1 1 0 0 0-.521-.878l-11-6a1.005 1.005 0 0 0-.958 0l-11 6a1 1 0 0 0 0 1.756l3.89 2.122H-62v-3c0-1.654-1.346-3-3-3h-10c-1.654 0-3 1.346-3 3v3h-15a1 1 0 0 0-1 1v48a1 1 0 0 0 1 1h44a1 1 0 0 0 1-1v-40.973h.001c2.148 0 4.272-.363 6.33-1.084A.998.998 0 0 0-41 114v-5.679l3-1.636v4.5a2.996 2.996 0 0 0-2 2.816v3a1 1 0 0 0 1 1h4a1 1 0 0 0 1-1v-3a2.996 2.996 0 0 0-2-2.817zM-77 110a1 1 0 0 0 1-1v-4c0-.552.449-1 1-1h10c.551 0 1 .448 1 1v4a1 1 0 0 0 1 1h2v5c0 .552-.449 1-1 1h-16c-.551 0-1-.448-1-1v-5h2zm27 46h-42v-46h11v7a1 1 0 0 0 1 1h20a1 1 0 0 0 1-1v-7h4v4a1 1 0 0 0 .667.943c.393.139.791.261 1.191.373.127.036.255.065.383.098a18.768 18.768 0 0 0 1.281.285c.268.05.537.093.807.132.149.021.297.043.446.06.075.009.15.022.225.03V156zm7-46.588v3.863a17.124 17.124 0 0 1-5.944.727 17.03 17.03 0 0 1-4.056-.726v-3.864l4.521 2.466a1.003 1.003 0 0 0 .958 0l4.521-2.466zm-5 .449-.516-.282-.005-.004-2.667-1.454-.002-.001-5.722-3.12 8.912-4.861 8.912 4.861-8.912 4.861zM-36 116h-2v-2a1.001 1.001 0 0 1 2 0v2z" fill="#8bcad9" class="color000000 svgShape"></path>
  <path d="M-70 112c1.654 0 3-1.346 3-3s-1.346-3-3-3-3 1.346-3 3 1.346 3 3 3zm0-4a1.001 1.001 0 1 1-1 1c0-.552.449-1 1-1zM-82 122h-6a1 1 0 0 0-1 1v6a1 1 0 0 0 1 1h6a1 1 0 0 0 1-1v-6a1 1 0 0 0-1-1zm-1 6h-4v-4h4v4zM-79 127h26v2h-26zM-82 134h-6a1 1 0 0 0-1 1v6a1 1 0 0 0 1 1h6a1 1 0 0 0 1-1v-6a1 1 0 0 0-1-1zm-1 6h-4v-4h4v4zM-79 139h26v2h-26zM-82 146h-6a1 1 0 0 0-1 1v6a1 1 0 0 0 1 1h6a1 1 0 0 0 1-1v-6a1 1 0 0 0-1-1zm-1 6h-4v-4h4v4zM-79 151h26v2h-26zM297-34h46c3.859 0 7-3.141 7-7a1 1 0 0 0-1-1h-4v-6.203l1.712.875c.316-.619.612-1.249.879-1.871l-1.84-.787a27.745 27.745 0 0 1-.751 1.6V-67c0-2.757-2.243-5-5-5h-40c-2.757 0-5 2.243-5 5v18.586c-.133-.265-.276-.522-.401-.791l-1.813.844c.291.626.606 1.247.937 1.845l1.277-.706V-42h-4a1 1 0 0 0-1 1c0 3.859 3.141 7 7 7zm0-33c0-1.654 1.346-3 3-3h40c1.654 0 3 1.346 3 3v25h-46v-25zm-1 27h51.899A5.009 5.009 0 0 1 343-36h-46a5.008 5.008 0 0 1-4.899-4H296z" fill="#8bcad9" class="color000000 svgShape"></path>
  <path d="M339-67h-38a1 1 0 0 0-1 1v20a1 1 0 0 0 1 1h38a1 1 0 0 0 1-1v-20a1 1 0 0 0-1-1zm-1 20h-36v-18h36v18zM308-82a1 1 0 0 0-1 1v6a1 1 0 0 0 1 1h22a1 1 0 0 0 1-1v-5h3a1 1 0 0 0 1-1v-6a1 1 0 0 0-1-1h-6v-5a1 1 0 0 0-1-1h-22a1 1 0 0 0-1 1v6a1 1 0 0 0 1 1h6v4h-3zm1 2h11v4h-11v-4zm9-6h2v4h-2v-4zm4 10v-4h2v4h-2zm7 0h-3v-4h3v4zm4-6h-11v-4h11v4zm-7-6h-11v-4h11v4zm-13-4v4h-2v-4h2zm-7 0h3v4h-3v-4zm7 6h3v4h-3v-4z" fill="#8bcad9" class="color000000 svgShape"></path>
  <path d="M320.199-55.003a4.005 4.005 0 0 0-3.771 2.667l1.885.666a2.004 2.004 0 0 1 3.775.002l1.887-.664a4.01 4.01 0 0 0-3.776-2.671z" fill="#8bcad9" class="color000000 svgShape"></path>
  <path d="M320.199-59.003a8.042 8.042 0 0 0-7.229 4.57l1.807.859a6.032 6.032 0 0 1 5.423-3.43 6.03 6.03 0 0 1 5.425 3.432l1.807-.857a8.044 8.044 0 0 0-7.233-4.574z" fill="#8bcad9" class="color000000 svgShape"></path>
  <path d="M320.199-61.003c3.776 0 7.19 2.09 8.91 5.455l1.781-.91a11.957 11.957 0 0 0-10.691-6.545c-4.53 0-8.627 2.508-10.69 6.545l1.781.91a9.965 9.965 0 0 1 8.909-5.455zM319-51h2v2h-2zM-48-360.816V-367h-.079a.992.992 0 0 0-.481-.541l-14.829-7.355a1.005 1.005 0 0 0-.846-.02l-15.162 6.641a1 1 0 0 0-.043 1.812l5.44 2.698V-353h-6a1 1 0 0 0-1 1v6a1 1 0 0 0 1 1v8a1 1 0 0 0 1 1h29a1 1 0 0 0 1-1v-3h1a1 1 0 0 0 1-1v-5a1 1 0 0 0-1-1h-2v-5a1 1 0 0 0-1-1h-3v-10.365l4-1.752v4.301A2.996 2.996 0 0 0-52-358v4a1 1 0 0 0 1 1h4a1 1 0 0 0 1-1v-4a2.996 2.996 0 0 0-2-2.816zm-20.874 11.042c.189.061.385.115.583.171.232.065.465.125.7.18.171.04.339.082.516.117.412.082.828.146 1.245.195.118.014.239.023.36.035.488.045.978.076 1.47.076.215 0 .464-.007.732-.021.111-.005.23-.016.348-.024.163-.012.327-.025.505-.044.162-.016.327-.038.498-.06.152-.02.307-.045.467-.071.197-.032.394-.066.601-.108.15-.03.305-.069.459-.104.225-.052.445-.101.679-.166.151-.042.309-.098.463-.145l.25-.078V-347h-11v-3.177c.197.08.414.15.622.225.166.06.333.123.502.178zM-53-342h-2v-3h2v3zm-5 2v2h-11v-2h11zm1-2h-11v-3h11v3zm-15-9v4h-2v-4h2zm-7 0h3v4h-3v-4zm4 6h5v3h-8v-3h3zm-3 5h3v2h-3v-2zm5 2v-2h2v2h-2zm22 0h-5v-2h5v2zm2-4h-2v-3h2v3zm-3-5h-5v-3.625c.072-.035.146-.079.218-.116.174-.087.345-.163.52-.259H-52v4zm-4-6.511c-.356.248-.712.465-1.067.667-.224.128-.447.236-.669.346-.142.071-.284.147-.425.211a13.04 13.04 0 0 1-.687.286H-59v.059c-.075.029-.151.061-.226.088-.232.084-.46.157-.686.225-.114.034-.228.07-.339.101a13.237 13.237 0 0 1-.977.234 11.194 11.194 0 0 1-.923.157c-.168.023-.335.046-.491.061-.135.013-.261.023-.387.032-.116.008-.237.019-.344.025-.225.013-.439.019-.627.019a13.847 13.847 0 0 1-1.499-.087 13.768 13.768 0 0 1-.998-.143c-.046-.008-.092-.014-.138-.023-.365-.07-.715-.155-1.053-.248-.109-.03-.216-.066-.324-.099a13.771 13.771 0 0 1-2.1-.82l-.061-.03c-.265-.131-.529-.27-.789-.419l-.011-.005c-.383-.22-.735-.438-1.027-.64v-9.26l7.389 3.665c.137.068.285.1.434.102l.01.002a.998.998 0 0 0 .401-.084l7.765-3.401v8.979zm.602-11.425-.003.001-8.739 3.828-8.416-4.174-.002-.001-4.074-2.021 12.772-5.594 12.492 6.196-4.03 1.765zM-48-355h-2v-3c0-.551.449-1 1-1s1 .449 1 1v3z" fill="#8bcad9" class="color000000 svgShape"></path>
  <path d="M-35-356h-2.301a26.827 26.827 0 0 0-1.578-5.884l1.994-1.151a.997.997 0 0 0 .366-1.366l-3-5.196a.999.999 0 0 0-1.366-.366l-1.999 1.154a27.105 27.105 0 0 0-4.307-4.305l1.155-2c.132-.229.168-.502.1-.759a.995.995 0 0 0-.466-.607l-5.196-3a1.003 1.003 0 0 0-1.366.366l-1.149 1.991A26.846 26.846 0 0 0-60-378.697V-381a1 1 0 0 0-1-1h-6a1 1 0 0 0-1 1v2.301c-2.01.299-3.982.829-5.884 1.578l-1.151-1.994a.998.998 0 0 0-1.366-.366l-5.196 3a1 1 0 0 0-.366 1.366l1.154 1.999a27.105 27.105 0 0 0-4.305 4.307l-2-1.155a1.005 1.005 0 0 0-.759-.1.995.995 0 0 0-.607.466l-3 5.196a1.005 1.005 0 0 0-.1.759.995.995 0 0 0 .466.607l1.991 1.149A26.846 26.846 0 0 0-90.697-356H-93a1 1 0 0 0-1 1v6a1 1 0 0 0 1 1h2.301c.299 2.01.829 3.982 1.578 5.884l-1.994 1.151a.997.997 0 0 0-.366 1.366l3 5.196a1 1 0 0 0 1.366.366l1.999-1.154a27.105 27.105 0 0 0 4.307 4.305l-1.155 2a1.005 1.005 0 0 0-.1.759.995.995 0 0 0 .466.607l5.196 3c.229.132.503.168.759.1a.995.995 0 0 0 .607-.466l1.149-1.991A26.846 26.846 0 0 0-68-325.303V-323a1 1 0 0 0 1 1h6a1 1 0 0 0 1-1v-2.302a26.869 26.869 0 0 0 5.876-1.592l1.16 2.009a.998.998 0 0 0 1.366.366l5.196-3a.997.997 0 0 0 .366-1.366l-1.16-2.008a27.258 27.258 0 0 0 4.301-4.302l2.009 1.16a1.002 1.002 0 0 0 1.366-.366l3-5.196a1 1 0 0 0-.366-1.366l-1.999-1.154a26.786 26.786 0 0 0 1.583-5.882H-35a1 1 0 0 0 1-1v-6A1 1 0 0 0-35-356zm-1 6h-2.178a1 1 0 0 0-.994.886 24.68 24.68 0 0 1-1.89 7.025 1.001 1.001 0 0 0 .417 1.264l1.892 1.092-2 3.464-1.9-1.097a1 1 0 0 0-1.301.268 25.23 25.23 0 0 1-5.144 5.144 1 1 0 0 0-.269 1.302l1.097 1.9-3.464 2-1.098-1.902a1 1 0 0 0-1.263-.418 24.863 24.863 0 0 1-7.021 1.9 1 1 0 0 0-.886.994V-324h-4v-2.178a1 1 0 0 0-.885-.993 24.838 24.838 0 0 1-7.031-1.881 1 1 0 0 0-1.264.417l-1.087 1.884-3.464-2 1.092-1.891a1 1 0 0 0-.269-1.302 25.154 25.154 0 0 1-5.147-5.146.999.999 0 0 0-1.302-.269l-1.89 1.091-2-3.464 1.887-1.089a1 1 0 0 0 .418-1.263 24.831 24.831 0 0 1-1.885-7.03 1 1 0 0 0-.994-.886H-92v-4h2.178a1 1 0 0 0 .993-.885 24.838 24.838 0 0 1 1.881-7.031 1.001 1.001 0 0 0-.417-1.264l-1.884-1.087 2-3.464 1.891 1.092c.438.252.998.138 1.302-.269a25.154 25.154 0 0 1 5.146-5.147 1 1 0 0 0 .269-1.302l-1.091-1.89 3.464-2 1.089 1.887a1 1 0 0 0 1.263.418 24.831 24.831 0 0 1 7.03-1.885 1 1 0 0 0 .886-.994V-380h4v2.178a1 1 0 0 0 .885.993c2.437.282 4.803.915 7.031 1.881a.998.998 0 0 0 1.264-.417l1.087-1.884 3.464 2-1.092 1.891a1 1 0 0 0 .269 1.302 25.154 25.154 0 0 1 5.147 5.146c.302.407.862.521 1.302.269l1.89-1.091 2 3.464-1.887 1.089a1 1 0 0 0-.418 1.263 24.831 24.831 0 0 1 1.885 7.03 1 1 0 0 0 .994.886H-36v4zM125.521-374.122l4.479 2.443V-366a1 1 0 0 0 .668.943 19.042 19.042 0 0 0 6.331 1.084c2.147 0 4.271-.363 6.331-1.084a1 1 0 0 0 .67-.944v-5.679l3-1.636v4.5a2.996 2.996 0 0 0-2 2.816v3a1 1 0 0 0 1 1h4a1 1 0 0 0 1-1v-3a2.996 2.996 0 0 0-2-2.816V-375a1 1 0 0 0-.521-.878l-11-6a.998.998 0 0 0-.957 0l-11 6a1 1 0 0 0-.001 1.756zM142-370.588v3.863a17.011 17.011 0 0 1-10 .001v-3.865l4.521 2.466c.297.163.66.163.957 0l4.522-2.465zm7 6.588h-2v-2a1.001 1.001 0 0 1 2 0v2zm-12-15.861 8.912 4.861-8.912 4.861-8.912-4.861 8.912-4.861zM61.474-347.88l-13-7a1.002 1.002 0 0 0-.948 0l-.526.283V-363c0-.022-.011-.041-.013-.063a1.028 1.028 0 0 0-.051-.257c-.011-.032-.019-.063-.034-.094a.997.997 0 0 0-.196-.293l-6-6a.97.97 0 0 0-.294-.196c-.03-.014-.06-.022-.091-.032a.944.944 0 0 0-.263-.052c-.019-.002-.037-.013-.058-.013h-8v-5c0-.022-.011-.041-.013-.063a1.028 1.028 0 0 0-.051-.257c-.011-.032-.019-.063-.034-.094a.997.997 0 0 0-.196-.293l-6-6a.997.997 0 0 0-.293-.196c-.03-.014-.061-.022-.093-.033a.993.993 0 0 0-.259-.052c-.02-.001-.04-.012-.061-.012H3a1 1 0 0 0-1 1v40a1 1 0 0 0 1 1h14v11a1 1 0 0 0 1 1h28a1 1 0 0 0 1-1v-3.013c.388.009.732.013 1 .013.668 0 1.771-.02 3-.109v2.294a2.996 2.996 0 0 0-2 2.816v4a1 1 0 0 0 1 1h4a1 1 0 0 0 1-1v-4a2.996 2.996 0 0 0-2-2.816v-2.5c2.552-.357 5-1.11 5-2.684v-9.249l3.474-1.871a1.001 1.001 0 0 0 0-1.761zM53-324h-2v-3c0-.551.449-1 1-1s1 .449 1 1v3zm-9.414-40H41v-2.586L43.586-364zm-15-12H26v-2.586L28.586-376zM4-342v-38h20v5a1 1 0 0 0 1 1h5v4H6v2h11v2H6v2h11v2H6v2h11v2H6v2h11v2H6v2h11v2H6v2h11v2H6v2h11v2H4zm41 12H19v-38h20v5a1 1 0 0 0 1 1h5v8.48l-10.474 5.64a.999.999 0 0 0 0 1.76L38-344.249V-335a1.418 1.418 0 0 0 .116.544c.053.13.121.254.21.37l.012.018c.101.129.227.249.369.363l.051.038c.139.107.292.207.462.301l.021.013a5.911 5.911 0 0 0 .62.288c.197.078.407.15.627.218l.113.035c.225.067.457.13.7.187l.092.02a17.942 17.942 0 0 0 1.234.233c.796.125 1.607.21 2.374.265V-330zm3-4c-.909 0-1.726-.036-2.492-.087-.237-.016-.482-.029-.703-.048-1.33-.117-2.413-.297-3.216-.491l-.004-.001c-.249-.06-.463-.121-.659-.182l-.128-.041a5.52 5.52 0 0 1-.36-.133c-.049-.02-.104-.041-.146-.061a1.736 1.736 0 0 1-.259-.141c-.009-.006-.025-.013-.032-.019v-7.678l1.707.629 5.819 3.133a.99.99 0 0 0 .947 0L51-340.48v6.361c-.894.073-1.892.119-3 .119zm8-1.203c-.338.248-1.376.588-3 .845v-7.199l3-1.615v7.969zm-3.289-8.469c-.032-.034-.049-.079-.086-.108l-5-4-1.249 1.562 4.451 3.561L48-341.136l-5.406-2.911-.001-.001L37.109-347l9.365-5.042.001-.001 1.525-.821L58.891-347l-6.18 3.328z" fill="#8bcad9" class="color000000 svgShape"></path>
  <path d="M6-378h16v2H6zM6-374h16v2H6zM22-354h8a1 1 0 0 0 1-1v-10a1 1 0 0 0-1-1h-8a1 1 0 0 0-1 1v10a1 1 0 0 0 1 1zm1-10h6v8h-6v-8zM33-360h10v2H33zM33-356h10v2H33zM21-352h15v2H21zM21-347h12v2H21zM21-342h15v2H21zM21-337h15v2H21zM249 98h-50c-2.757 0-5 2.243-5 5v40c0 2.757 2.243 5 5 5h22v4h-8c-2.757 0-5 2.243-5 5a1 1 0 0 0 1 1h30a1 1 0 0 0 1-1c0-2.757-2.243-5-5-5h-8v-4h22c2.757 0 5-2.243 5-5v-40c0-2.757-2.243-5-5-5zm-50 2h50c1.654 0 3 1.346 3 3v35h-56v-35c0-1.654 1.346-3 3-3zm38.829 56h-27.658a3.006 3.006 0 0 1 2.829-2h22c1.304 0 2.416.836 2.829 2zM225 152h-2v-4h2v4zm24-6h-50c-1.654 0-3-1.346-3-3v-3h56v3c0 1.654-1.346 3-3 3z" fill="#8bcad9" class="color000000 svgShape"></path>
  <path d="M220 142h8v2h-8zM210 128h9v2h-6a1 1 0 0 0-1 1v4a1 1 0 0 0 1 1h22a1 1 0 0 0 1-1v-3h6a1 1 0 0 0 1-1v-4a1 1 0 0 0-1-1h-9v-3a1 1 0 0 0-1-1h-22a1 1 0 0 0-1 1v4a1 1 0 0 0 1 1zm10-4h7v2h-7v-2zm12 4h5v2h-7v-2h2zm-4 2h-2v-2h2v2zm-3 4h-7v-2h7v2zm-4-6h3v2h-3v-2zm-7 4h2v2h-2v-2zm13 2v-2h2v2h-2zm7 0h-3v-2h3v2zm7-4h-2v-2h2v2zm-10-4h-2v-2h2v2zm-13-2v2h-2v-2h2zm-7 0h3v2h-3v-2zM221.613 109.15a2.91 2.91 0 0 0-.926-.15h-.286c-.892 0-1.724.399-2.282 1.095a2.913 2.913 0 0 0-.575 2.466l1.145 5.146a2.907 2.907 0 0 0 2.856 2.293c.454 0 .906-.107 1.309-.309l1.146-.573 1.146.572c.403.202.855.31 1.31.31a2.906 2.906 0 0 0 2.856-2.292l1.145-5.147a2.92 2.92 0 0 0-.575-2.466A2.917 2.917 0 0 0 227.6 109h-.286c-.315 0-.627.051-.926.15l-1.388.463v-2.223c0-.252.04-.495.098-.732.001-.005.005-.009.007-.015.057-.23.138-.445.235-.648.008-.015.013-.031.021-.046.101-.2.221-.387.361-.557a3.13 3.13 0 0 1 1.798-1.078l1.676-.335-.393-1.961-1.676.335a5.076 5.076 0 0 0-1.934.85c-.726-.735-1.882-1.203-3.193-1.203-2.243 0-4 1.317-4 3s1.757 3 4 3a5.4 5.4 0 0 0 1-.104v1.717l-1.387-.463zm5.407 1.897a.931.931 0 0 1 .293-.047h.286c.282 0 .546.126.723.347s.243.505.182.78l-1.145 5.148c-.124.56-.806.885-1.317.627l-1.594-.797a1.005 1.005 0 0 0-.894 0l-1.595.798c-.509.253-1.192-.067-1.316-.629l-1.145-5.147a.924.924 0 0 1 .905-1.127h.286c.101 0 .199.016.293.047l2.703.901c.205.068.428.068.633 0l2.702-.901zM220 105c0-.408.779-1 2-1 .875 0 1.516.315 1.809.634-.023.037-.041.077-.063.115-.055.09-.102.183-.151.277a4.935 4.935 0 0 0-.153.33c-.055.127-.114.251-.159.383A3.14 3.14 0 0 1 222 106c-1.221 0-2-.592-2-1zM308.707-172.293A.997.997 0 0 0 309-173v-3h-2v2.586l-1.707 1.707 1.414 1.414 2-2zM318-163h2v2h-2zM322-163h2v2h-2zM296-163h2v2h-2zM335-163.091V-159h-2v2h6v-2h-2v-4.091c2.989-.528 3-3.483 3-5.909 0-3.364-1.757-6-4-6s-4 2.636-4 6c0 2.426.011 5.381 3 5.909zm1-9.909c.944 0 2 1.71 2 4 0 3.242-.185 4-2 4s-2-.758-2-4c0-2.29 1.056-4 2-4zM350-173c0-3.364-1.757-6-4-6s-4 2.636-4 6c0 2.426.011 5.381 3 5.909V-159h-2v2h7v-2h-3v-8.091c2.989-.528 3-3.483 3-5.909zm-6 0c0-2.29 1.056-4 2-4s2 1.71 2 4c0 3.242-.185 4-2 4s-2-.758-2-4z" fill="#8bcad9" class="color000000 svgShape"></path>
  <path d="M340.114-130.994c-17.11-1.959-27.731-10.721-28.115-18.059-.038-.716-.076-4.365 2.509-7.948H327a1 1 0 0 0 1-1v-7h1a1 1 0 0 0 .949-1.317l-2-6A1 1 0 0 0 327-173h-11v-3a1 1 0 0 0-.419-.814L309-181.515V-184h5a1 1 0 0 0 1-1v-4a1 1 0 0 0-1-1h-6a1 1 0 0 0-1 1v7.485l-6.581 4.701A1 1 0 0 0 300-176v3h-7a.997.997 0 0 0-.948.684l-2 6a1 1 0 0 0 .949 1.317h1v7a1 1 0 0 0 1 1h8.28c-3.289 6.455-2.174 14.504.865 19.518 3.08 5.084 9.094 7.942 10.535 8.429l.641-1.895c-1.217-.411-6.727-3.051-9.465-7.571-2.889-4.767-3.857-12.558-.286-18.482h8.541c-2.139 3.602-2.166 6.993-2.111 8.052.428 8.168 11.724 17.861 29.885 19.941l.228-1.987zM326-159h-10v-6h10v6zm.279-12 1.333 4H316v-4h10.279zM309-188h4v2h-4v-2zm-7 12.515 6-4.286 6 4.286V-159h-2v-4c0-2.206-1.794-4-4-4s-4 1.794-4 4v4h-2v-16.485zM293.721-171H300v4h-7.612l1.333-4zm.279 6h6v6h-6v-6zm12 6v-4c0-1.103.897-2 2-2s2 .897 2 2v4h-4z" fill="#8bcad9" class="color000000 svgShape"></path>
  <path d="M317-151c.552 0 1 .449 1 1h2c0-.551.448-1 1-1v-2a2.98 2.98 0 0 0-2 .78 2.976 2.976 0 0 0-2-.78v2zM350-134a2.98 2.98 0 0 0-2 .78 2.976 2.976 0 0 0-2-.78v2c.552 0 1 .449 1 1h2c0-.551.448-1 1-1v-2zM332-139v2c.552 0 1 .449 1 1h2c0-.551.448-1 1-1v-2a2.98 2.98 0 0 0-2 .78 2.98 2.98 0 0 0-2-.78zM322-144c.552 0 1 .449 1 1h2c0-.551.448-1 1-1v-2a2.98 2.98 0 0 0-2 .78 2.976 2.976 0 0 0-2-.78v2zM342-144h2c0-.551.448-1 1-1v-2a2.98 2.98 0 0 0-2 .78 2.976 2.976 0 0 0-2-.78v2c.552 0 1 .449 1 1zM331-150c.552 0 1 .449 1 1h2c0-.551.448-1 1-1v-2a2.98 2.98 0 0 0-2 .78 2.976 2.976 0 0 0-2-.78v2zM346-152h2c0-.551.448-1 1-1v-2a2.98 2.98 0 0 0-2 .78 2.976 2.976 0 0 0-2-.78v2c.552 0 1 .449 1 1zM301-134a2.98 2.98 0 0 0-2 .78 2.976 2.976 0 0 0-2-.78v2c.552 0 1 .449 1 1h2c0-.551.448-1 1-1v-2zM291-144v2c.552 0 1 .449 1 1h2c0-.551.448-1 1-1v-2a2.98 2.98 0 0 0-2 .78 2.98 2.98 0 0 0-2-.78zM296-152c0-.551.448-1 1-1v-2a2.98 2.98 0 0 0-2 .78 2.976 2.976 0 0 0-2-.78v2c.552 0 1 .449 1 1h2zM335-182h8c1.654 0 3-1.346 3-3a3.004 3.004 0 0 0-3.514-2.955c-.689-1.243-2.004-2.045-3.486-2.045s-2.797.802-3.486 2.045A3.004 3.004 0 0 0 332-185c0 1.654 1.346 3 3 3zm0-4c.192 0 .374.055.541.163a1.003 1.003 0 0 0 1.518-.614c.211-.912 1.008-1.549 1.941-1.549s1.73.637 1.941 1.548a1 1 0 0 0 1.518.614.983.983 0 0 1 .541-.163 1.001 1.001 0 0 1 0 2h-8a1 1 0 0 1 0-1.999zM327-185a2.94 2.94 0 0 0-.514.045c-.689-1.243-2.004-2.045-3.486-2.045s-2.797.802-3.486 2.045A3.004 3.004 0 0 0 316-182c0 1.654 1.346 3 3 3h8c1.654 0 3-1.346 3-3s-1.346-3-3-3zm0 4h-8a1.001 1.001 0 0 1 0-2c.192 0 .374.055.541.163a1.003 1.003 0 0 0 1.518-.614c.211-.912 1.008-1.549 1.941-1.549s1.73.637 1.941 1.548a1 1 0 0 0 1.518.614.983.983 0 0 1 .541-.163 1.001 1.001 0 0 1 0 2.001zM350-61.011l-.002-.278-2 .021L348-61c0 .558-.016 1.112-.049 1.662l1.996.119c.035-.589.053-1.182.053-1.792zM337.277-83.035l1.234-1.574a30.392 30.392 0 0 0-1.669-1.22l-1.125 1.654c.528.359 1.054.742 1.56 1.14zM349.757-57.16l-1.984-.254a28.54 28.54 0 0 1-.31 1.906l1.961.389c.134-.674.246-1.36.333-2.041zM348.145-71.409a29.315 29.315 0 0 0-.785-1.914l-1.822.822c.263.583.509 1.184.73 1.785l1.877-.693zM341.58-81.838a29.662 29.662 0 0 0-1.486-1.439l-1.34 1.486c.476.429.942.879 1.387 1.34l1.439-1.387zM346.875-68.884c.18.611.341 1.24.479 1.869l1.953-.428a29.684 29.684 0 0 0-.512-2.004l-1.92.563zM346.444-75.178a29.817 29.817 0 0 0-1.04-1.787l-1.693 1.064c.344.547.671 1.108.972 1.668l1.761-.945zM348.95-53.104l-1.93-.525a27.715 27.715 0 0 1-.571 1.843l1.889.658c.225-.645.431-1.31.612-1.976zM349.91-63.354a31.366 31.366 0 0 0-.231-2.054l-1.979.291c.092.626.165 1.271.216 1.919l1.994-.156zM344.241-78.676a30.02 30.02 0 0 0-1.275-1.627l-1.531 1.287c.412.49.813 1.001 1.191 1.52l1.615-1.18zM295.846-75.17l-1.725-1.014c-.35.595-.682 1.207-.986 1.818l1.789.893c.285-.571.595-1.141.922-1.697zM293.846-50.981a29.248 29.248 0 0 1-.627-1.824l-1.912.584c.201.658.427 1.316.672 1.955l1.867-.715zM292.276-72.481a30.426 30.426 0 0 0-.726 1.938l1.896.637c.203-.605.431-1.214.677-1.809l-1.847-.766zM292.719-54.671a27.287 27.287 0 0 1-.37-1.894l-1.975.314c.107.678.241 1.36.396 2.03l1.949-.45zM290.034-62.434l1.998.094a28.03 28.03 0 0 1 .156-1.925l-1.986-.23a30.16 30.16 0 0 0-.168 2.061zM292.896-68.058l-1.936-.502a30.55 30.55 0 0 0-.45 2.02l1.967.367c.117-.627.258-1.262.419-1.885zM290.119-58.302l1.992-.178a27.258 27.258 0 0 1-.105-1.928l-2 .041a30.6 30.6 0 0 0 .113 2.065zM303.582-83.685l-1.174-1.619c-.555.402-1.104.83-1.632 1.271l1.283 1.535a28.407 28.407 0 0 1 1.523-1.187zM298.024-78.354l-1.568-1.24c-.427.539-.839 1.1-1.227 1.666l1.65 1.129c.363-.529.748-1.053 1.145-1.555zM300.621-81.21l-1.383-1.445c-.494.474-.98.973-1.444 1.482l1.48 1.346c.433-.477.886-.942 1.347-1.383zM98.804-323.02l5 1a1.002 1.002 0 0 0 1.133-.629l3-8A1 1 0 0 0 108-331v-2.523l3.275 1.31 2.83 5.66c.211.419.685.637 1.137.523l4-1a1 1 0 0 0 .672-1.377l-4-9a1.002 1.002 0 0 0-.543-.522l-3.909-1.563 1.736-2.895 1.095 1.094c.109.11.243.192.391.242l6 2c.427.142.897-.02 1.148-.394l1.703-2.555H157a1 1 0 0 0 .789-1.614l-7-9c-.26-.335-.7-.47-1.105-.335l-2.379.793-8.562-9.513a1.006 1.006 0 0 0-.762-.331 1.004 1.004 0 0 0-.75.36l-8.283 9.94-4.185-4.946c-.381-.449-1.146-.449-1.527 0l-7.548 8.92-2.476-2.475c1.083-.918 1.787-2.271 1.787-3.799 0-2.757-2.243-5-5-5s-5 2.243-5 5c0 1.412.593 2.683 1.538 3.593l-5.415 9.928c-.08.147-.122.312-.122.479v7.819l-2.937 7.83a.998.998 0 0 0 .741 1.331zm39.225-36.453 8.228 9.142a.998.998 0 0 0 1.06.28l2.328-.776 5.311 6.828h-19.491l-5.204-6.15 7.768-9.324zM124-354.452l4.19 4.953.001.001 4.653 5.498h-9.639l-4.443-1.904-1.464-.628 6.702-7.92zM110-357c1.654 0 3 1.346 3 3a2.998 2.998 0 0 1-1.768 2.728l-.003.001a3.02 3.02 0 0 1-.709.218c-.032.006-.066.005-.099.01a2.98 2.98 0 0 1-.581.026c-.067-.004-.133-.012-.199-.02a2.966 2.966 0 0 1-.502-.105c-.056-.017-.113-.032-.168-.052a2.998 2.998 0 0 1-.602-.295A2.994 2.994 0 0 1 110-357zm-7.063 25.351A1 1 0 0 0 103-332v-7.745l5.227-9.582c.215.082.437.141.662.193.062.014.122.029.185.041.273.052.55.078.828.084.034.001.065.01.099.01.077 0 .148-.019.224-.023a4.873 4.873 0 0 0 .976-.139c.062-.016.125-.02.187-.038l3.478 3.478a.988.988 0 0 0 .236.283l.275.22a.95.95 0 0 0 .231.138l5.895 2.527-.909 1.364-5.052-1.684-1.833-1.833a1 1 0 0 0-1.564.192l-3 5a1.001 1.001 0 0 0 .486 1.443l4.622 1.849 3.352 7.541-2.066.517-2.642-5.283a1 1 0 0 0-.523-.481l-5-2A1.002 1.002 0 0 0 106-335v3.819l-2.638 7.034-3.013-.603 2.588-6.899z" fill="#8bcad9" class="color000000 svgShape"></path>
  <path d="m119.707-321.293 14.793-14.793-.487 2.922 1.973.329 1-6a1.002 1.002 0 0 0-1.15-1.151l-6 1 .328 1.973 2.923-.487-14.794 14.794 1.414 1.413zM-88.194-53.109l-.801 8.01A1 1 0 0 0-88-44h6a.999.999 0 0 0 .995-1.1l-.801-8.01A3.191 3.191 0 0 0-84-55.831v-2.341c.035-.012.066-.031.1-.045.053-.021.104-.045.155-.069.114-.053.223-.112.329-.179.048-.03.095-.058.141-.091a2.93 2.93 0 0 0 .339-.28c.021-.02.045-.037.065-.057.123-.124.233-.26.333-.404.028-.04.05-.083.076-.125a2.991 2.991 0 0 0 .254-.506c.045-.117.082-.237.112-.361.013-.055.029-.108.04-.164.034-.175.056-.358.056-.547s-.022-.372-.056-.551c-.01-.056-.026-.109-.04-.164a2.892 2.892 0 0 0-.366-.866c-.026-.041-.048-.085-.076-.125-.1-.144-.21-.279-.333-.404-.02-.021-.044-.037-.065-.057a3.036 3.036 0 0 0-.339-.28c-.046-.032-.094-.061-.141-.091a2.956 2.956 0 0 0-.328-.178c-.052-.024-.103-.048-.156-.069-.034-.014-.065-.032-.1-.044v-14.745l1.693.613 3.714 1.345 2.04 6.12A20.87 20.87 0 0 0-80-59c0 11.579 9.42 21 21 21s21-9.421 21-21c0-7.485-3.949-14.05-9.861-17.77l-.549-2.987 5.906-3.375a1 1 0 0 0-.118-1.794l-22-9a1.001 1.001 0 0 0-.923.087l-20 13-.014.013-.015.008a1.025 1.025 0 0 0-.18.161l-.013.019c-.05.06-.093.126-.128.196-.013.026-.02.053-.03.079a.918.918 0 0 0-.051.164c-.007.033-.009.067-.012.101-.003.033-.012.065-.012.098v16.184c-1.161.414-2 1.514-2 2.816s.839 2.402 2 2.816v2.354a3.19 3.19 0 0 0-2.194 2.721zM-83.105-46h-3.79l.691-6.91c.062-.621.58-1.09 1.204-1.09s1.142.469 1.204 1.09l.691 6.91zM-40-59c0 10.477-8.523 19-19 19s-19-8.523-19-19c0-4.525 1.596-8.681 4.246-11.948.079-.098.161-.193.242-.289.335-.396.68-.783 1.046-1.15l.048-.051c.38-.379.781-.737 1.192-1.083a19.572 19.572 0 0 1 1.536-1.174c.091-.062.185-.119.278-.179.363-.239.736-.465 1.116-.679.127-.071.252-.146.381-.215a19.32 19.32 0 0 1 3.517-1.44c.427-.127.86-.238 1.299-.335.15-.033.301-.068.452-.098.513-.1 1.033-.181 1.559-.239.122-.014.244-.023.367-.034.567-.05 1.14-.086 1.721-.086.567 0 1.126.036 1.681.085a18.668 18.668 0 0 1 1.782.246c.304.057.606.124.907.196a18.208 18.208 0 0 1 1.727.495c.167.057.331.121.497.182.62.231 1.229.492 1.825.788.07.035.142.066.212.102.324.166.642.344.957.529C-43.792-72.072-40-65.978-40-59zm-11.217-19.488a20.654 20.654 0 0 0-1.94-.669 21.117 21.117 0 0 0-1.379-.355c-.193-.042-.388-.077-.583-.114a20.754 20.754 0 0 0-1.646-.252c-.094-.01-.189-.015-.283-.024A20.826 20.826 0 0 0-59-80c-.664 0-1.322.038-1.976.1-.082.008-.166.012-.248.021a20.6 20.6 0 0 0-1.756.269c-.14.027-.281.053-.42.082a20.968 20.968 0 0 0-2.083.563c-.511.166-1.015.349-1.511.554-.147.061-.291.126-.436.19-.509.224-1.011.461-1.501.724-.085.046-.167.097-.251.144-.477.265-.943.549-1.399.851-.07.046-.142.089-.211.136a21.24 21.24 0 0 0-1.423 1.065c-.076.062-.152.122-.227.185a20.82 20.82 0 0 0-1.313 1.194l-.191.193c-.399.405-.788.822-1.156 1.261l-1.655-4.965a1.003 1.003 0 0 0-.03-.21c.114-.081.227-.151.341-.23.439-.305.877-.606 1.313-.884.183-.116.364-.217.546-.329.368-.226.737-.456 1.103-.663.234-.132.465-.245.698-.37.313-.167.627-.343.939-.496.265-.13.527-.239.79-.359.277-.126.556-.263.832-.378.295-.123.586-.223.88-.333.243-.091.487-.193.728-.275.323-.11.642-.196.962-.29.209-.061.42-.135.628-.189.409-.107.815-.19 1.22-.271.117-.023.235-.057.352-.078a19.709 19.709 0 0 1 1.553-.218c4.486-.442 7.614-.31 9.733-.008l.067.011c.209.03.41.062.599.095l.203.039c.133.025.269.05.392.076.106.022.2.046.299.068.075.017.156.034.227.052.127.032.243.064.357.096l.104.028c.107.031.203.061.298.092.033.011.071.021.103.032.09.03.17.059.25.088l.09.032c.064.024.118.046.175.069.034.014.073.028.104.042l.352 2.108c.017.1.052.193.097.281l.33 1.792c-.062-.029-.126-.054-.188-.082-.3-.137-.6-.27-.907-.393zm-13.677-13.388 19.618 8.025-3.517 2.01-.223-1.214c-.017-.095-.069-.175-.112-.259-.024-.048-.032-.103-.063-.146a1.012 1.012 0 0 0-.337-.296c-2.519-1.348-7.343-1.828-13.352-1.348-.401.032-.807.068-1.217.109-4.661.46-9.538 2.543-14.495 6.189a1.13 1.13 0 0 0-.054.043l-2.013-.729-.466-.169-1.645-.596 17.876-11.619zM-85-62a1.001 1.001 0 1 1-1 1c0-.552.449-1 1-1z" fill="#8bcad9" class="color000000 svgShape"></path>
  <path d="M-59-68c2.757 0 5 2.243 5 5h2c0-3.519-2.613-6.432-6-6.92V-72h-2v2.08c-3.387.488-6 3.401-6 6.92 0 .334.167.646.445.832l11.528 7.686A5.006 5.006 0 0 1-59-50c-2.757 0-5-2.243-5-5h-2c0 3.519 2.613 6.432 6 6.92V-46h2v-2.08c3.387-.488 6-3.401 6-6.92 0-.334-.167-.646-.445-.832l-11.528-7.686A5.006 5.006 0 0 1-59-68z" fill="#8bcad9" class="color000000 svgShape"></path>
  <path d="M-59-76c-9.374 0-17 7.626-17 17s7.626 17 17 17 17-7.626 17-17-7.626-17-17-17zm0 32c-8.271 0-15-6.729-15-15s6.729-15 15-15 15 6.729 15 15-6.729 15-15 15zM-153-160h-14a1 1 0 0 0-1 1v13h-6a1 1 0 0 0-1 1v14a1 1 0 0 0 1 1h28a1 1 0 0 0 1-1v-14a1 1 0 0 0-1-1h-6v-13a1 1 0 0 0-1-1zm-13 2h12v12h-12v-12zm-7 14h12v12h-12v-12zm26 12h-12v-12h12v12z" fill="#8bcad9" class="color000000 svgShape"></path>
  <path d="M-156.13-149.507a.997.997 0 0 0-.013-1.007l-3-5c-.361-.603-1.354-.603-1.715 0l-3 5a1 1 0 0 0 .857 1.514h6a1 1 0 0 0 .871-.507zm-5.104-1.493 1.234-2.056 1.234 2.056h-2.468zM-167-142c-2.206 0-4 1.794-4 4s1.794 4 4 4 4-1.794 4-4-1.794-4-4-4zm0 6c-1.103 0-2-.897-2-2s.897-2 2-2 2 .897 2 2-.897 2-2 2zM-153.707-141.707l-3 3a.999.999 0 0 0 0 1.414l3 3a.997.997 0 0 0 1.414 0l3-3a.999.999 0 0 0 0-1.414l-3-3a.999.999 0 0 0-1.414 0zm2.293 3.707-1.586 1.586-1.586-1.586 1.586-1.586 1.586 1.586zM3 62h49l.013-.002a.99.99 0 0 0 .267-.039c.021-.006.04-.019.061-.027a.979.979 0 0 0 .199-.094l.015-.007 9-6a1 1 0 0 0 .34-1.279l-2.961-5.923-2.975-9.917a.99.99 0 0 0-.206-.371L53 35.196V3a1 1 0 0 0-1-1H3a1 1 0 0 0-1 1v58a1 1 0 0 0 1 1zm54.042-12.713c.017.056.038.108.063.16l2.605 5.21-7.479 4.986L49.8 56.4a.983.983 0 0 0-.406-.319l-6.786-2.908-5.849-6.823a.998.998 0 0 0-.273-.224l-7.003-3.891a1.596 1.596 0 0 1-.706-1.984 1.562 1.562 0 0 1 1.315-.981l3.661 2.225 2.8 1.4a.983.983 0 0 0 .411.097c.012 0 .023.008.036.008a.985.985 0 0 0 .28-.043c.013-.004.024-.011.037-.015a.99.99 0 0 0 .327-.185.984.984 0 0 0 .226-.261l4-7a1 1 0 0 0-.421-1.39l-4-2a1 1 0 0 0-.895 0l-2.917 1.459c-.022.007-.123.038-.146.047h-.003a1.028 1.028 0 0 1-.448.061 3.989 3.989 0 0 1-.069-.014.942.942 0 0 1-.381-.135l-.019-.016a.994.994 0 0 1-.169-.149c-.032-.037-.058-.078-.086-.12a.334.334 0 0 1-.018-.025c-.011-.018-.026-.035-.035-.053a1.052 1.052 0 0 1-.112-.355.99.99 0 0 1 .283-.827l2.158-2.157 3.453-1.727 9.36 3.743 6.699 7.656 2.938 9.793zm-33.684-17.94 2.828.404-1.212 1.616-1.616-2.02zm4.897.979 2.016 1.228c.006.02.017.039.023.059.018.055.043.108.064.161.05.128.105.252.171.372.016.03.024.061.042.091.024.04.05.075.08.111l.011.014c.064.095.134.183.208.27.031.038.055.08.09.117.015.016.035.027.05.043a2.954 2.954 0 0 0 .468.396c.133.088.279.163.436.232.047.021.094.041.142.06.033.013.061.028.095.04.056.019.11.025.167.039.11.031.219.059.332.077.053.011.146.027.185.031.037.003.073-.004.11-.002.131.008.261.004.393-.006.052-.004.106.004.158-.002l.025-.003c.025-.003.05-.015.075-.019.027-.004.055-.002.083-.008l4.311 2.625-1.39 2.432-1.88-.938-3.838-2.336-.002-.001-4.42-2.69 1.795-2.393zm10.728 4.188-3.055-1.86L37 34.118l2.607 1.304-.624 1.092zM4 4h47v28.91l-2.248-2.568a1.001 1.001 0 0 0-.381-.271l-10-4a1.008 1.008 0 0 0-.819.034l-4 2a.98.98 0 0 0-.26.188l-2.273 2.272a2.968 2.968 0 0 0-.539.774l-1.961-1.194c-.014-.009-.031-.009-.045-.017a.97.97 0 0 0-.263-.099c-.018-.004-.035-.012-.054-.015l-.017-.005-7-1a1 1 0 1 0-.923 1.615l4 5c.03.037.075.055.11.087.05.048.091.105.151.142l3.567 2.169a3.57 3.57 0 0 0-1.127 1.485 3.6 3.6 0 0 0 1.591 4.475l6.847 3.804 5.883 6.863c.1.116.225.208.365.269l6.754 2.895L50 60H4V4z" fill="#8bcad9" class="color000000 svgShape"></path>
  <path d="M8 8h39v2H8zM8 14h39v2H8zM8 20h39v2H8zM8 26h11v2H8zM-130.105-329.447l-2-4-2-4-1.447-2.895a2.984 2.984 0 0 0-2.683-1.658h-12.084a8.991 8.991 0 0 0-6.833 3.143l-2.466 2.877c-.127-.008-.252-.019-.381-.019s-.254.011-.381.019l-2.466-2.877a8.991 8.991 0 0 0-6.833-3.143h-12.084a2.984 2.984 0 0 0-2.683 1.658l-1.447 2.895-2 4-2 4a1 1 0 0 0-.101.447H-190v5a1 1 0 0 0 1.124.992l6.876-.859v.867a1.002 1.002 0 0 0 1.707.707l2.293-2.293 2.293 2.293A1 1 0 0 0-174-323v-1.095l9.1-.91a1 1 0 0 0 .9-.995v-4a3.963 3.963 0 0 1 .127-.951 3.78 3.78 0 0 1 .119-.383c.037-.102.069-.206.115-.306l.016-.03c.076-.162.161-.321.259-.474l.002-.006c.209-.325.467-.61.758-.862.004-.004.01-.005.014-.008a3.994 3.994 0 0 1 1.397-.779c.02-.006.039-.013.059-.018.164-.049.331-.089.501-.117l.015-.005c.202-.032.406-.062.617-.062s.414.031.617.062l.015.005a3.873 3.873 0 0 1 .561.135c.508.161.984.424 1.397.779.004.004.01.005.014.008.291.252.55.536.758.862l.002.006c.098.153.183.312.259.474.005.01.012.02.016.03.046.1.078.203.115.306a3.86 3.86 0 0 1 .176.64c.04.226.07.456.07.694v4a1 1 0 0 0 .917.997l24 2a1.001 1.001 0 0 0 1.083-.997v-5h-.005a.985.985 0 0 0-.099-.447zm-23.978-1.503-.016-.103a5.933 5.933 0 0 0-.25-.942l-.001-.004h20.731l1 2H-154c0-.325-.033-.641-.083-.951zm18.465-5.05 1 2h-20.345l.648-.556A6.008 6.008 0 0 1-150.41-336h14.792zm-20.017-1.556A6.994 6.994 0 0 1-150.32-340h12.084c.381 0 .724.212.894.553l.724 1.447h-13.792a8.01 8.01 0 0 0-5.207 1.926l-1.178 1.01a6.007 6.007 0 0 0-.664-.364l1.824-2.128zm-27.023-1.891a.994.994 0 0 1 .894-.553h12.084c2.046 0 3.983.891 5.315 2.444l1.824 2.128c-.23.108-.451.229-.664.364l-1.178-1.01A8.006 8.006 0 0 0-169.59-338h-13.792l.724-1.447zm16.757 8.393-.016.103a5.95 5.95 0 0 0-.083.95h-8v-2h8.35l-.001.004a5.867 5.867 0 0 0-.25.943zm-3.688-4.946c1.431 0 2.818.513 3.905 1.444l.648.556h-20.346l1-2h14.793zM-182-330h-5.382l1-2H-182v2zm-6 4.867V-328h6v2.117l-6 .75zm12-.281-1.293-1.293a.997.997 0 0 0-1.414 0l-1.293 1.293V-332h4v6.586zm2-.691V-328h8v1.095l-8 .8zm20-.815V-328h22v2.913l-22-1.833zM-168.313-367.98c-5.644 1.128-8.413 5.064-7.798 11.082.572 5.602 4.126 11.826 9.812 12.882a9.346 9.346 0 0 0 1.702.154c1.485 0 3.023-.34 4.538-1.008 2.062.915 4.169 1.209 6.122.854 6.182-1.126 9.256-8.309 9.821-12.918.25-1.915.584-8.367-5.61-10.986-3.468-1.465-7.036-.137-9.158 1.01.218-2.001.77-3.859 1.609-5.507.221-.438.47-.866.738-1.283.08-.125.167-.243.251-.365.22-.32.452-.632.699-.936 2.527-3.095 6.264-4.998 10.589-4.998v-2c-4.385 0-8.24 1.701-11.073 4.532-1.39-1.405-3.691-3.282-6.672-4.068-5.479-1.449-10.139.49-13.113 5.453a1 1 0 0 0 .183 1.252c.918.841 5.282 4.53 11.09 4.53.897 0 1.831-.088 2.79-.289.573-.12 1.174-.282 1.787-.474a18.456 18.456 0 0 0-.913 4.3c-1.752-.933-4.491-1.798-7.394-1.217zm17.806 1.901c4.762 2.013 4.667 6.884 4.397 8.958-.485 3.966-3.066 10.205-8.187 11.138-1.669.305-3.51-.002-5.324-.888a1.003 1.003 0 0 0-.875-.001c-1.881.911-3.71 1.211-5.44.889-4.669-.867-7.704-6.375-8.188-11.118-.51-4.993 1.577-7.993 6.202-8.918a7.805 7.805 0 0 1 1.528-.148c2.693 0 5.015 1.314 5.659 1.905a1 1 0 0 0 1.269.068c.502-.369 5.003-3.556 8.959-1.885zm-11.698-6.469c-5.326 1.114-9.745-1.819-11.484-3.216 2.501-3.656 6.093-4.984 10.434-3.838 2.601.686 4.64 2.386 5.849 3.625a16.442 16.442 0 0 0-1.536 2.411 19.593 19.593 0 0 1-3.263 1.018z" fill="#8bcad9" class="color000000 svgShape"></path>
  <path d="M-150-357h2c0-3.86-3.14-7-7-7v2c2.757 0 5 2.243 5 5zM-150-355h2v2h-2zM-136.028 117H-138v-5c0-1.654-1.346-3-3-3h-33v-8c0-1.654-1.346-3-3-3h-10c-1.654 0-3 1.346-3 3v56c0 .047.019.088.025.133.007.05.013.096.027.144a.988.988 0 0 0 .13.272c.015.023.018.052.035.073.005.007.014.009.019.015a.992.992 0 0 0 .317.254c.028.014.058.015.087.027.079.031.158.065.246.075a.868.868 0 0 0 .113.007h45.818a4.977 4.977 0 0 0 4.872-3.876l7.154-31a4.974 4.974 0 0 0-.959-4.236 4.97 4.97 0 0 0-3.912-1.888zM-187 100h10c.551 0 1 .448 1 1v9a1 1 0 0 0 1 1h34c.551 0 1 .448 1 1v5h-36.818a4.977 4.977 0 0 0-4.872 3.876l-6.31 27.343V101c0-.552.449-1 1-1zm53.895 22.675-7.154 31a2.985 2.985 0 0 1-2.923 2.325h-44.561l8.002-34.675a2.985 2.985 0 0 1 2.923-2.325h40.79c.919 0 1.775.413 2.348 1.133.572.719.782 1.645.575 2.542z" fill="#8bcad9" class="color000000 svgShape"></path>
  <path d="M-148 139.184V133a1 1 0 0 0-.521-.878l-11-6a1.005 1.005 0 0 0-.958 0l-11 6a1 1 0 0 0 0 1.756l4.479 2.443V142a1 1 0 0 0 .667.943 19.034 19.034 0 0 0 12.663 0 .999.999 0 0 0 .669-.943v-5.679l3-1.636v4.5a2.996 2.996 0 0 0-2 2.816v3a1 1 0 0 0 1 1h4a1 1 0 0 0 1-1v-3a2.994 2.994 0 0 0-1.999-2.817zm-7-1.772v3.863a17.196 17.196 0 0 1-5.944.727 17.03 17.03 0 0 1-4.056-.726v-3.864l4.521 2.466a1.003 1.003 0 0 0 .958 0l4.521-2.466zm-5 .449-8.912-4.861 8.912-4.861 8.912 4.861-8.912 4.861zm12 6.139h-2v-2a1.001 1.001 0 0 1 2 0v2zM348.966 149.788c-.005-.021.002-.042-.004-.063l-2-7c-.014-.049-.046-.086-.067-.131-.013-.029-.011-.063-.027-.091l-4-7a1.002 1.002 0 0 0-1.247-.43L320 143.919l-21.621-8.845a1.005 1.005 0 0 0-1.247.43l-4 7c-.016.028-.013.061-.027.09-.021.045-.053.082-.067.132l-2 7c-.006.021.001.042-.004.062-.005.025-.021.045-.025.07l-1 7a1.001 1.001 0 0 0 .99 1.142h58a1.003 1.003 0 0 0 .99-1.142l-1-7c-.002-.025-.018-.045-.023-.07zm-2.254-.656L321 151.887v-2.091l7.29-1.682 17.01-3.925 1.412 4.943zm-35.002-1.019 7.29 1.682v2.091l-25.712-2.755 1.412-4.944 17.01 3.926zm32.754-5.785L321 147.743v-2.072l20.566-8.413 2.898 5.07zm-46.03-5.07L319 145.671v2.072l-23.464-5.415 2.898-5.07zm-5.581 13.839 23.532 2.521 2.615.28V156h-26.847l.7-4.903zM321 156v-2.102l2.615-.28 23.532-2.521.7 4.903H321z" fill="#8bcad9" class="color000000 svgShape"></path>
  <path d="M346 113a3.96 3.96 0 0 0-.935.122l-4.367-8.188a3.98 3.98 0 0 0 1.226-2.188l8.392-2.797-.633-1.896-7.921 2.64C341.217 99.13 339.746 98 338 98c-2.206 0-4 1.794-4 4 0 .024.007.047.007.071l-10.561 2.933a3.986 3.986 0 0 0-2.446-1.862V98h-2v5.142a3.99 3.99 0 0 0-2.446 1.862l-10.561-2.933c0-.024.007-.047.007-.071 0-2.206-1.794-4-4-4a3.997 3.997 0 0 0-3.728 2.582l-7.866-3.496-.813 1.828 8.475 3.767a3.973 3.973 0 0 0 1.233 2.253l-4.367 8.188A3.945 3.945 0 0 0 294 113c-2.206 0-4 1.794-4 4s1.794 4 4 4c.74 0 1.424-.215 2.019-.567l5.547 5.547A3.962 3.962 0 0 0 301 128c0 2.206 1.794 4 4 4 1.239 0 2.334-.578 3.068-1.464l8.006 3.735A3.978 3.978 0 0 0 316 135c0 2.206 1.794 4 4 4s4-1.794 4-4c0-.25-.03-.492-.074-.729l8.006-3.735c.734.887 1.829 1.464 3.068 1.464 2.206 0 4-1.794 4-4 0-.74-.215-1.424-.567-2.019l5.547-5.547a3.96 3.96 0 0 0 2.019.567c2.206 0 4-1.794 4-4S348.206 113 346 113zm-8-13c1.103 0 2 .897 2 2 0 .755-.426 1.406-1.045 1.746-.007.004-.015.003-.022.007-.671.362-1.4.281-1.964-.068a2.121 2.121 0 0 1-.259-.189c-.052-.045-.105-.09-.152-.14-.057-.06-.105-.127-.154-.193-.05-.068-.104-.134-.146-.209-.014-.024-.021-.052-.033-.077a1.932 1.932 0 0 1-.14-.345l-.008-.016-.008-.026A1.876 1.876 0 0 1 336 102c0-1.103.897-2 2-2zm-14.001 6.927 10.549-2.93c.009.016.022.029.031.044a4.142 4.142 0 0 0 .383.531c.1.118.199.233.312.339l-6.727 12.333-5.484-7.679c.037-.044.064-.095.099-.14a3.9 3.9 0 0 0 .236-.336c.058-.094.108-.192.158-.291.059-.116.118-.23.166-.353.049-.125.083-.254.119-.383.029-.105.065-.206.086-.314a3.96 3.96 0 0 0 .076-.747c-.003-.025-.003-.05-.004-.074zm-3.065 24.191c-.026-.006-.051-.015-.078-.021-.057-.013-.116-.018-.174-.028a3.812 3.812 0 0 0-1.364 0c-.058.01-.117.016-.174.028l-.078.021c-.013.003-.027.004-.04.008l-6.508-11.931 6.05-8.471c.446.172.926.276 1.432.276s.986-.104 1.432-.276l6.05 8.471-6.508 11.931c-.013-.004-.027-.004-.04-.008zM320 105c.91 0 1.672.615 1.913 1.449l.001.015c.026.096.044.179.058.258.013.092.028.183.028.278 0 .152-.02.301-.055.447-.007.03-.019.058-.027.088a1.922 1.922 0 0 1-.128.339c-.013.027-.028.052-.043.078a2.018 2.018 0 0 1-.214.316l-.04.048c-.1.112-.211.216-.335.306l-.008.009a1.98 1.98 0 0 1-2.3 0l-.008-.009a1.953 1.953 0 0 1-.335-.306l-.04-.048a1.972 1.972 0 0 1-.214-.316l-.043-.078a1.952 1.952 0 0 1-.128-.339c-.008-.03-.02-.058-.027-.088A1.913 1.913 0 0 1 318 107c0-.095.015-.186.028-.278.014-.079.031-.162.058-.258l.001-.015A1.996 1.996 0 0 1 320 105zm-14.548-1.003 10.549 2.93L316 107c0 .253.028.502.076.747.021.108.056.209.086.314.036.129.07.258.119.383.048.122.107.237.166.353.05.099.1.197.158.291a3.9 3.9 0 0 0 .236.336c.035.045.062.096.099.14l-5.484 7.679-6.727-12.333c.111-.104.21-.219.309-.336a3.933 3.933 0 0 0 .385-.533c.007-.015.02-.028.029-.044zM302 100c1.103 0 2 .897 2 2 0 .167-.026.331-.068.489l-.008.026c-.002.006-.007.01-.008.016a1.994 1.994 0 0 1-.135.334c-.015.029-.023.061-.039.089-.04.072-.092.135-.14.201-.051.07-.102.14-.162.203-.045.048-.095.09-.144.133a2.019 2.019 0 0 1-.269.197 1.935 1.935 0 0 1-1.959.064c-.007-.004-.015-.003-.022-.007a1.994 1.994 0 0 1-1.045-1.746A2 2 0 0 1 302 100zm-10 17c0-1.103.897-2 2-2 .332 0 .641.089.916.233.007.004.01.01.017.014a2.026 2.026 0 0 1 .787.752c.077.129.135.269.18.412.01.032.022.064.03.097a1.92 1.92 0 0 1 .028.891c-.005.022-.014.042-.019.064a2.019 2.019 0 0 1-.097.312l-.014.027A1.999 1.999 0 0 1 292 117zm5.895.882A4.037 4.037 0 0 0 298 117c0-.283-.031-.558-.087-.824-.007-.033-.022-.062-.03-.095a3.954 3.954 0 0 0-.223-.683c-.012-.027-.03-.052-.043-.079a3.985 3.985 0 0 0-.362-.628c-.015-.02-.033-.038-.048-.058a3.956 3.956 0 0 0-.499-.559l-.009-.01 4.363-8.181c.014.003.028.003.042.007.105.024.214.036.322.051.141.021.282.038.423.043.051.003.099.016.151.016.067 0 .129-.016.195-.02.109-.006.217-.017.325-.033.153-.02.304-.043.451-.08l7.192 13.185-3.726 5.217c-.051-.02-.106-.023-.157-.041a3.909 3.909 0 0 0-.63-.163c-.089-.014-.177-.019-.267-.027-.128-.012-.252-.038-.383-.038-.076 0-.147.018-.222.022-.091.005-.178.016-.268.027a3.82 3.82 0 0 0-.86.202c-.167.06-.325.132-.48.213-.065.034-.138.052-.201.089l-5.521-5.521c.21-.356.356-.745.447-1.15zM305 130a1.998 1.998 0 1 1-1.134-3.644 1.92 1.92 0 0 1 .25-.14l.047-.026a2.031 2.031 0 0 1 1.995.187l.003.001c.506.363.839.953.839 1.622 0 .282-.065.565-.194.842l-.002.007A2 2 0 0 1 305 130zm11.922 2.459-7.991-3.728c.046-.241.069-.485.069-.731 0-.976-.365-1.859-.947-2.554l3.173-4.443 6.047 11.086c-.099.093-.188.195-.278.298-.022.026-.051.045-.073.072zM320 137c-1.103 0-2-.897-2-2 0-.295.068-.574.184-.827.003-.006.008-.009.011-.015.081-.173.185-.33.307-.47l.011-.013c.181-.204.408-.352.652-.467a2.07 2.07 0 0 1 .336-.135 1.931 1.931 0 0 1 .603-.058c.134.007.267.024.395.058.113.031.225.083.336.136.243.116.471.263.652.467l.011.013c.122.14.226.296.307.469.004.01.012.016.017.026.112.25.178.525.178.816 0 1.103-.897 2-2 2zm11.069-8.269-7.991 3.728c-.022-.027-.051-.046-.074-.072-.09-.103-.178-.204-.278-.298l6.047-11.086 3.173 4.443A3.968 3.968 0 0 0 331 128c0 .246.023.49.069.731zM335 130a2 2 0 0 1-1.804-1.151l-.002-.007A1.982 1.982 0 0 1 333 128c0-.669.333-1.258.839-1.622l.003-.001a2.028 2.028 0 0 1 1.996-.187l.03.016c.092.043.182.092.267.15A1.998 1.998 0 0 1 335 130zm2.032-5.446a3.953 3.953 0 0 0-1.309-.48A3.948 3.948 0 0 0 335 124c-.259 0-.514.028-.765.077-.117.023-.226.064-.34.097-.11.032-.224.053-.331.095l-3.726-5.217 7.192-13.185c.148.037.3.06.454.08.107.015.213.026.321.032.066.003.128.02.195.02.052 0 .1-.013.151-.015.142-.005.283-.022.424-.043.108-.016.216-.027.32-.051.014-.003.028-.003.042-.007l4.363 8.181-.009.01c-.184.17-.35.357-.499.559-.015.02-.033.038-.048.058-.14.197-.259.407-.362.628-.013.027-.031.051-.043.079a3.954 3.954 0 0 0-.223.683c-.008.032-.023.062-.03.095A4.062 4.062 0 0 0 342 117a4.037 4.037 0 0 0 .105.882c.091.405.237.794.448 1.15l-5.521 5.522zM346 119a2 2 0 0 1-1.828-1.196l-.014-.027a1.947 1.947 0 0 1-.097-.312c-.005-.022-.015-.042-.019-.064a2.025 2.025 0 0 1-.04-.4c0-.168.027-.333.068-.492.008-.033.02-.064.03-.096.046-.144.103-.283.18-.413l.013-.024c.184-.3.448-.553.774-.728.007-.004.01-.01.017-.014a1.97 1.97 0 0 1 .916-.233c1.103 0 2 .897 2 2s-.897 1.999-2 1.999zM348 130h2v2h-2zM348 122h2v6h-2zM344 132h2v2h-2z" fill="#8bcad9" class="color000000 svgShape"></path>
  <path d="M344 124h2v6h-2zM294 132h2v2h-2zM294 124h2v6h-2zM290 130h2v2h-2zM290 122h2v6h-2zM53 128h-4v-25c0-2.757-2.243-5-5-5H12c-2.757 0-5 2.243-5 5v25H3a1 1 0 0 0-1 1c0 2.757 2.243 5 5 5h21v23a1 1 0 0 0 1 1h24a1 1 0 0 0 1-1v-28a1 1 0 0 0-1-1zM9 103c0-1.654 1.346-3 3-3h32c1.654 0 3 1.346 3 3v25H9v-25zm-2 29a3.006 3.006 0 0 1-2.829-2H28v2H7zm23 1v-3h2v26h-2v-23zm22 23H34v-26h18v26zM56.879 131.879A2.978 2.978 0 0 0 56 134v19.172c0 .155.036.309.105.447l2 4a1 1 0 0 0 1.79 0l2-4c.069-.139.105-.292.105-.447V134c0-.801-.312-1.555-.878-2.121-1.134-1.133-3.11-1.133-4.243 0zM58 134c0-.263.107-.521.293-.707a1.021 1.021 0 0 1 1.414 0c.186.186.293.444.293.707v2h-2v-2zm2 15.172h-2V138h2v11.172zm-1 5.764-1-2v-1.764h2v1.764l-1 2z" fill="#8bcad9" class="color000000 svgShape"></path>
  <path d="M36 138v6a1 1 0 0 0 1 1h12a1 1 0 0 0 1-1v-6a1 1 0 0 0-1-1H37a1 1 0 0 0-1 1zm2 1h10v4H38v-4zM15 109a1 1 0 0 0 .521.878L20 112.321V118a1 1 0 0 0 .667.943 19.034 19.034 0 0 0 12.663 0A.998.998 0 0 0 34 118v-5.679l3-1.636v4.5a2.996 2.996 0 0 0-2 2.816v3a1 1 0 0 0 1 1h4a1 1 0 0 0 1-1v-3a2.996 2.996 0 0 0-2-2.816V109a1 1 0 0 0-.521-.878l-11-6a1.005 1.005 0 0 0-.958 0l-11 6A1 1 0 0 0 15 109zm17 4.412v3.863a17.175 17.175 0 0 1-5.944.727 17.03 17.03 0 0 1-4.056-.726v-3.864l4.521 2.466a1.003 1.003 0 0 0 .958 0L32 113.412zM39 120h-2v-2a1.001 1.001 0 0 1 2 0v2zm-12-15.861L35.912 109 27 113.861 18.088 109 27 104.139z" fill="#8bcad9" class="color000000 svgShape"></path>
  <path d="M45 125v-22a1 1 0 0 0-1-1H34v2h9v20H13v-20h7v-2h-8a1 1 0 0 0-1 1v22a1 1 0 0 0 1 1h32a1 1 0 0 0 1-1zM58 127h2v2h-2zM58 123h2v2h-2zM58 119h2v2h-2zM58 115h2v2h-2zM58 111h2v2h-2zM54 111h2v2h-2zM22 146h2v2h-2zM18 146h2v2h-2zM14 146h2v2h-2zM10 146h2v2h-2zM10 142h2v2h-2zM10 138h2v2h-2zM151 138h-46a1 1 0 0 0-.857.485 10.698 10.698 0 0 0 0 11.029 1 1 0 0 0 .857.485h13v1c0 .313.147.609.397.799a1.005 1.005 0 0 0 .877.163l2.105-.602-1.35 5.397a1 1 0 0 0 1.525 1.075l2.318-1.545 1.42 1.42a1 1 0 0 0 1.677-.465l1.03-4.121 1.03 4.121a1 1 0 0 0 1.677.465l1.42-1.42 2.318 1.545a.999.999 0 0 0 1.525-1.075l-1.35-5.397 2.105.602a1.005 1.005 0 0 0 .877-.163c.25-.189.397-.485.397-.799v-1h13a1 1 0 0 0 .857-.485 10.698 10.698 0 0 0 0-11.029A.994.994 0 0 0 151 138zm-21 2v3.96h-.001l-3.858.04-.141-.04V140h4zm-2 8h-1v-2h2v2h-1zm-22.413 0a8.693 8.693 0 0 1 0-8H124v3.388l-4.726-1.35a1.012 1.012 0 0 0-.877.163c-.25.189-.397.485-.397.799v5h-12.413zM120 149v-4.674l5 1.428v2.491l-2.505.716-.003.001-2.492.712V149zm5.458 6.044-.751-.751a.999.999 0 0 0-1.262-.125l-.848.565 1.002-4.007 2.542-.726h.578l-1.261 5.044zm7.944-.311-.848-.565a.999.999 0 0 0-1.262.125l-.751.751-1.26-5.044h.578l2.542.726 1.001 4.007zm2.598-5.059-2.492-.712-.003-.001-2.505-.716v-2.491l5-1.428v5.348zM150.413 148H138v-5c0-.313-.147-.609-.397-.799a1.012 1.012 0 0 0-.877-.163l-4.726 1.35V140h18.413a8.693 8.693 0 0 1 0 8zM155 122.142V112a1 1 0 0 0-.566-.901l-27-13a1.005 1.005 0 0 0-.867 0l-27 13a1 1 0 0 0-.001 1.802l9.434 4.542V131c0 .379.215.726.554.896 3.823 1.904 9.895 4.118 17.454 4.117.336 0 .676-.004 1.019-.013a39.364 39.364 0 0 0 16.42-4.105 1 1 0 0 0 .554-.895v-13.557l8-3.852v8.55c-1.721.447-3 1.999-3 3.858v7a1 1 0 0 0 1 1h6a1 1 0 0 0 1-1v-7c-.001-1.858-1.28-3.41-3.001-3.857zm-12 8.233A37.355 37.355 0 0 1 127.974 134c-7.262.204-13.155-1.803-16.974-3.625v-11.969l15.566 7.495a1.013 1.013 0 0 0 .868 0L143 118.406v11.969zm.57-14.463-.004.001L127 123.89l-16.566-7.977-.004-.001-8.125-3.912L127 100.11 151.695 112l-8.125 3.912zM156 132h-4v-6c0-1.084.916-2 2-2s2 .916 2 2v6zM251.707-72.707A.996.996 0 0 0 251-73h-3a.996.996 0 0 0-.707.293l-.293.293V-77c0-.021-.011-.04-.012-.062a.993.993 0 0 0-.052-.259c-.011-.032-.019-.063-.033-.093a.997.997 0 0 0-.196-.293l-10-10a.997.997 0 0 0-.293-.196c-.03-.014-.061-.022-.093-.033a1.009 1.009 0 0 0-.26-.052c-.021-.001-.04-.012-.061-.012h-18.745l-10.776-5.878a1.003 1.003 0 0 0-.957 0l-11 6a1 1 0 0 0-.001 1.756L199-83.679V-78a1 1 0 0 0 .668.943c.439.155.884.292 1.332.414V-35a1 1 0 0 0 1 1h44a1 1 0 0 0 1-1v-24.586l4.707-4.707 2-2A.996.996 0 0 0 254-67v-3a.996.996 0 0 0-.293-.707l-2-2zM243.586-78H237v-6.586L243.586-78zM218-78v2h-2v-2a1 1 0 0 1 2 0zm-7-4.588v3.863a17.089 17.089 0 0 1-5.944.727c-.433-.024-.862-.07-1.293-.128-.089-.012-.178-.026-.266-.039a17.72 17.72 0 0 1-1.274-.237h-.001c-.41-.093-.819-.197-1.222-.32v-3.865l4.521 2.466c.054.03.111.047.167.066.015.005.028.013.043.017.088.025.178.04.268.04.022 0 .043-.007.065-.008.026-.002.051-.006.078-.01.037-.005.075-.006.111-.016.029-.008.054-.022.082-.032.048-.017.098-.031.143-.056L211-82.588zm-5-9.273L214.912-87 206-82.139l-3.521-1.921-5.391-2.94L206-91.861zM245-36h-42v-40.213c.058.009.116.01.174.019.587.088 1.177.159 1.771.192.354.02.705.029 1.057.029.161 0 .32-.016.481-.02a18.633 18.633 0 0 0 1.79-.133c.209-.025.418-.048.626-.08.402-.062.802-.144 1.201-.232.177-.039.355-.07.531-.114a19.307 19.307 0 0 0 1.7-.505 1 1 0 0 0 .67-.943v-5.679l3-1.637v4.5a2.996 2.996 0 0 0-2 2.816v3a1 1 0 0 0 1 1h4a1 1 0 0 0 1-1v-3a2.996 2.996 0 0 0-2-2.816V-86h17v9a1 1 0 0 0 1 1h9v5.586l-1.294-1.294a.997.997 0 0 0-.707-.293h-.001l-2 .001a.995.995 0 0 0-.706.293l-6 6 1.414 1.414L241.414-70l1.171-.001L243.586-69l-6.293 6.293-13 13c-.004.004-.006.011-.01.015-.077.08-.136.174-.184.276-.012.026-.024.05-.034.077-.008.022-.021.041-.028.064l-1.929 6.751-1.816 1.816 1.414 1.414 1.816-1.816 6.751-1.929c.023-.007.042-.02.064-.028.027-.01.051-.022.077-.034a.98.98 0 0 0 .276-.184c.004-.004.011-.006.015-.01l13-13L245-57.586V-36zm-15-9.414L226.414-49 238-60.586 241.586-57 230-45.414zm-1.909.92-3.635 1.038 1.038-3.635 2.597 2.597zm17.202-16.213L243-58.414 239.414-62 246-68.586 249.586-65l-4.293 4.293zM252-67.414l-1 1L247.414-70l1-1h2.172L252-69.586v2.172z" fill="#8bcad9" class="color000000 svgShape"></path>
  <path d="M207-41h12v2h-12zM207-47h13v2h-13zM207-53h15v2h-15zM207-59h22v2h-22zM207-65h25v2h-25zM207-71h28v2h-28zM-132.039-175.725l1.646-5.759a2.758 2.758 0 0 0-1.126-3.063c-.724-.482-1.611-.598-2.434-.315s-1.453.918-1.728 1.743l-1.137 3.411-2.392 1.196-.206-.686a5.987 5.987 0 0 0 2.416-4.8c0-3.309-2.691-6-6-6s-6 2.691-6 6c0 1.964.953 3.705 2.416 4.8l-.206.686-2.392-1.196-1.137-3.411a2.75 2.75 0 0 0-1.728-1.743 2.747 2.747 0 0 0-2.434.315 2.76 2.76 0 0 0-1.126 3.064l1.646 5.759c.077.27.264.494.514.62l4.9 2.45-3.41 11.369a.998.998 0 0 0 .958 1.287h1v8c0 1.654 1.346 3 3 3s3-1.346 3-3v-8h2v8c0 1.654 1.346 3 3 3s3-1.346 3-3v-8h1a.997.997 0 0 0 .958-1.287l-3.41-11.369 4.9-2.45a1.01 1.01 0 0 0 .512-.621zM-143-188c2.206 0 4 1.794 4 4 0 1.499-.839 2.793-2.063 3.478l-.014.004a4.235 4.235 0 0 1-.864.358c-.036.01-.07.024-.106.033-.105.027-.211.045-.316.063a3.932 3.932 0 0 1-.706.057 3.932 3.932 0 0 1-.567-.057 3.838 3.838 0 0 1-.316-.063c-.036-.009-.07-.023-.106-.033a4.18 4.18 0 0 1-.864-.358l-.014-.004c-1.224-.685-2.063-1.978-2.063-3.478a4.003 4.003 0 0 1 3.999-4zm-9.159 11.302-1.524-5.335a.767.767 0 0 1 .987-.938.757.757 0 0 1 .479.484l1.268 3.804c.084.251.264.459.501.578l3.074 1.537-.591 1.969-4.194-2.099zM-146-152c0 .551-.449 1-1 1s-1-.449-1-1v-8h2v8zm8 0c0 .551-.449 1-1 1s-1-.449-1-1v-8h2v8zm1-10h-12.656l3.266-10.886.001-.001 1.174-3.913v-.001l.44-1.467c.272.084.554.143.841.188l.089.014c.277.039.558.067.846.067s.569-.027.846-.067l.089-.014c.287-.045.569-.104.841-.188l.44 1.467v.001l1.174 3.913.001.001 3.266 10.886H-137zm-1.036-12.6-.591-1.969 3.074-1.537c.237-.119.417-.327.501-.578l1.268-3.804a.765.765 0 0 1 1.154-.397.768.768 0 0 1 .313.85l-1.525 5.336-4.194 2.099zM-189.607-181.484l1.646 5.759c.077.27.264.494.514.62l4.434 2.217-.926 2.547a.996.996 0 0 0-.054.239l-.001.003-1 10a1.001 1.001 0 0 0 .995 1.1v6c0 1.654 1.346 3 3 3s3-1.346 3-3v-6h2v6c0 1.654 1.346 3 3 3s3-1.346 3-3v-6a1 1 0 0 0 .995-1.1l-1-10-.001-.003a1.015 1.015 0 0 0-.054-.24l-.926-2.547 4.434-2.217a1 1 0 0 0 .514-.62l1.646-5.759a2.758 2.758 0 0 0-1.126-3.063c-.724-.482-1.611-.598-2.434-.315s-1.453.918-1.728 1.743l-1.137 3.411-2.241 1.12-.251-.69a5.989 5.989 0 0 0 2.31-4.721c0-3.309-2.691-6-6-6s-6 2.691-6 6c0 1.917.907 3.622 2.31 4.721l-.251.69-2.241-1.12-1.137-3.411a2.75 2.75 0 0 0-1.728-1.743 2.747 2.747 0 0 0-2.434.315 2.76 2.76 0 0 0-1.128 3.064zM-171.105-161H-176v-3h-2v3h-4.895l.8-8h10.19l.8 8zm-8.895 8c0 .551-.449 1-1 1s-1-.449-1-1v-6h2v6zm8 0c0 .551-.449 1-1 1s-1-.449-1-1v-6h2v6zm2.447-25.105c.237-.119.417-.327.501-.578l1.268-3.804a.766.766 0 0 1 1.154-.397.768.768 0 0 1 .313.85l-1.525 5.336-3.833 1.917-.051-.14-.646-1.776 2.819-1.408zM-177-188c2.206 0 4 1.794 4 4 0 1.476-.813 2.754-2.006 3.447l-.013.004a4.187 4.187 0 0 1-.842.364c-.059.018-.116.04-.177.055-.105.028-.211.046-.318.065a3.973 3.973 0 0 1-.717.058 3.973 3.973 0 0 1-.571-.058 3.586 3.586 0 0 1-.318-.065c-.06-.015-.117-.037-.176-.055a4.139 4.139 0 0 1-.843-.364l-.013-.004c-1.193-.693-2.006-1.971-2.006-3.447 0-2.206 1.794-4 4-4zm-.993 9.911.07.011c.302.047.608.078.923.078s.621-.032.922-.078l.07-.011a5.95 5.95 0 0 0 .918-.228l1.254 3.448.664 1.827v.001l.743 2.042h-9.145l.743-2.042v-.001l.664-1.827 1.254-3.448c.298.1.605.175.92.228zm-9.379-4.795a.766.766 0 0 1 1.154.397l1.268 3.804c.084.251.264.459.501.578l2.818 1.409-.646 1.776-.051.14-3.833-1.917-1.524-5.335a.771.771 0 0 1 .313-.852zM-34.069-163.344c-.008-.022-.013-.044-.023-.066-.005-.012-.007-.026-.013-.038l-4-8A1.002 1.002 0 0 0-39-172h-15.657L-63-178.489V-182h7a1 1 0 0 0 1-1v-6a1 1 0 0 0-1-1h-8a1 1 0 0 0-1 1v10.511L-73.343-172H-90c-.417 0-.79.259-.937.649l-3 8a.983.983 0 0 0-.056.316c0 .012-.007.022-.007.035v22a1 1 0 0 0 1 1h17.238l-9.878 8.232A1 1 0 0 0-85-130h42a1 1 0 0 0 .61-1.792L-53.06-140H-35a1 1 0 0 0 1-1v-22c0-.014-.007-.025-.008-.039a1.003 1.003 0 0 0-.061-.305zm-2.549-.656H-54v-6h14.382l3 6zM-56-163v21h-2v-11c0-2.757-2.243-5-5-5h-2c-2.757 0-5 2.243-5 5v11h-2v-28.511l8-6.222 8 6.222V-163zm-4 21h-8v-11c0-1.654 1.346-3 3-3h2c1.654 0 3 1.346 3 3v11zm-3-46h6v4h-6v-4zm-26.307 18H-74v6h-17.557l2.25-6zM-92-162h18v20h-2v-7a1 1 0 0 0-1-1h-4a1 1 0 0 0-1 1v7h-2v-7a1 1 0 0 0-1-1h-4a1 1 0 0 0-1 1v7h-2v-20zm4 20v-6h2v6h-2zm8 0v-6h2v6h-2zm-2.238 10 9.6-8h16.298l10.4 8h-36.298zM-50-142v-6h2v6h-2zm8 0v-6h2v6h-2zm6 0h-2v-7a1 1 0 0 0-1-1h-4a1 1 0 0 0-1 1v7h-2v-7a1 1 0 0 0-1-1h-4a1 1 0 0 0-1 1v7h-2v-20h18v20z" fill="#8bcad9" class="color000000 svgShape"></path>
  <path d="M-69-166c0 2.757 2.243 5 5 5s5-2.243 5-5-2.243-5-5-5-5 2.243-5 5zm8 0c0 1.654-1.346 3-3 3s-3-1.346-3-3 1.346-3 3-3 3 1.346 3 3zM-89-152h4a1 1 0 0 0 1-1v-6a1 1 0 0 0-1-1h-4a1 1 0 0 0-1 1v6a1 1 0 0 0 1 1zm1-6h2v4h-2v-4zM-81-152h4a1 1 0 0 0 1-1v-6a1 1 0 0 0-1-1h-4a1 1 0 0 0-1 1v6a1 1 0 0 0 1 1zm1-6h2v4h-2v-4zM-51-152h4a1 1 0 0 0 1-1v-6a1 1 0 0 0-1-1h-4a1 1 0 0 0-1 1v6a1 1 0 0 0 1 1zm1-6h2v4h-2v-4zM-43-152h4a1 1 0 0 0 1-1v-6a1 1 0 0 0-1-1h-4a1 1 0 0 0-1 1v6a1 1 0 0 0 1 1zm1-6h2v4h-2v-4zM235.479-183.878l-11-6a.998.998 0 0 0-.957 0l-11 6a1 1 0 0 0-.001 1.756l4.479 2.443V-174a1 1 0 0 0 .668.943 19.042 19.042 0 0 0 6.331 1.084c2.147 0 4.271-.363 6.331-1.084a1 1 0 0 0 .67-.944v-5.679l3-1.636v4.5a2.996 2.996 0 0 0-2 2.816v3a1 1 0 0 0 1 1h4a1 1 0 0 0 1-1v-3a2.996 2.996 0 0 0-2-2.816V-183a1 1 0 0 0-.521-.878zm-6.479 5.29v3.863a16.985 16.985 0 0 1-10 .001v-3.865l4.521 2.466c.297.163.66.163.957 0l4.522-2.465zm-5 .449L215.088-183l8.912-4.861 8.912 4.861-8.912 4.861zM236-172h-2v-2a1.001 1.001 0 0 1 2 0v2zM194.172-152.439A1 1 0 0 0 195-152h2v21a1 1 0 0 0 1 1h52a1 1 0 0 0 1-1v-21h2a1.001 1.001 0 0 0 .929-1.371l-4-10a1.001 1.001 0 0 0-.929-.628h-17.63l-6.719-5.759a1 1 0 0 0-1.301 0L216.63-164H199c-.409 0-.776.249-.929.628l-4 10c-.123.309-.085.658.101.933zM213-144h-14v-8h14v8zm-14 2h14v10h-14v-10zm16-1v-13h18v24h-3v-7c0-2.757-2.243-5-5-5h-2c-2.757 0-5 2.243-5 5v7h-3v-11zm8 5h-3v-1c0-1.654 1.346-3 3-3v4zm2-4c1.654 0 3 1.346 3 3v1h-3v-4zm-5 6h3v4h-3v-4zm5 4v-4h3v4h-3zm24 0h-14v-10h14v10zm0-12h-14v-8h14v8zm-15.297-18h14.62l3.2 8H235v-2h3a1 1 0 0 0 .651-1.759L233.703-162zM224-167.683 235.297-158h-22.594L224-167.683zM199.677-162h14.62l-4.947 4.241a1 1 0 0 0 .651 1.759h3v2h-16.523l3.199-8z" fill="#8bcad9" class="color000000 svgShape"></path>
  <path d="M201-150h2v4h-2zM205-150h2v4h-2zM209-150h2v4h-2zM201-140h2v6h-2zM205-140h2v6h-2zM209-140h2v6h-2zM237-150h2v4h-2zM241-150h2v4h-2zM245-150h2v4h-2zM237-140h2v6h-2zM241-140h2v6h-2zM245-140h2v6h-2zM218-146h4a1 1 0 0 0 1-1v-4a1 1 0 0 0-1-1h-4a1 1 0 0 0-1 1v4a1 1 0 0 0 1 1zm1-4h2v2h-2v-2zM226-146h4a1 1 0 0 0 1-1v-4a1 1 0 0 0-1-1h-4a1 1 0 0 0-1 1v4a1 1 0 0 0 1 1zm1-4h2v2h-2v-2zM205.083-176.644l-1.352-1.475c-.504.462-1.001.949-1.476 1.449l1.449 1.378c.444-.465.908-.92 1.379-1.352zM199.62-173.485l1.623 1.167c.376-.522.773-1.037 1.181-1.529l-1.541-1.275a29.665 29.665 0 0 0-1.263 1.637zM197.442-169.969l1.77.933c.301-.571.623-1.135.958-1.675l-1.699-1.054a29.45 29.45 0 0 0-1.029 1.796zM194.643-162.206l1.957.411c.132-.626.287-1.257.463-1.874l-1.924-.547a28.739 28.739 0 0 0-.496 2.01zM206.963-180.696c-.563.389-1.121.804-1.66 1.233l1.248 1.563a27.221 27.221 0 0 1 1.549-1.151l-1.137-1.645zM210.517-182.807a30.07 30.07 0 0 0-1.813.994l1.021 1.72c.552-.328 1.121-.64 1.692-.928l-.9-1.786zM195.773-166.186l1.881.68c.22-.606.461-1.209.719-1.792l-1.83-.809a31.907 31.907 0 0 0-.77 1.921zM239.124-181.915a30.785 30.785 0 0 0-1.82-.982l-.889 1.792c.572.284 1.145.592 1.699.917l1.01-1.727zM240.874-180.809l-1.127 1.652c.531.362 1.055.746 1.557 1.142l1.238-1.571c-.539-.424-1.1-.835-1.668-1.223zM247.729-170.872c.34.542.666 1.104.97 1.67l1.762-.945a30.205 30.205 0 0 0-1.038-1.787l-1.694 1.062zM253.314-162.41a30.074 30.074 0 0 0-.51-2.003l-1.92.56c.177.607.337 1.237.477 1.872l1.953-.429zM245.456-173.99c.414.493.813 1.005 1.189 1.521l1.617-1.178a30.357 30.357 0 0 0-1.273-1.628l-1.533 1.285zM242.779-176.77c.47.426.937.878 1.387 1.344l1.439-1.389c-.481-.499-.98-.982-1.484-1.438l-1.342 1.483zM249.551-167.471c.261.58.507 1.181.729 1.786l1.877-.692a30.416 30.416 0 0 0-.782-1.914l-1.824.82zM243 26h-14a.998.998 0 0 0-.97 1.242l1 4A1 1 0 0 0 230 32h5v9h-3a.996.996 0 0 0-.707.293l-2 2 1.414 1.414L232.414 43h7.172l1.707 1.707 1.414-1.414-2-2A.996.996 0 0 0 240 41h-3v-9h5c.459 0 .858-.313.97-.758l1-4A.998.998 0 0 0 243 26zm-1.781 4h-10.438l-.5-2h11.438l-.5 2zM203 62v-3h1a1 1 0 0 0 1-1v-4a2.997 2.997 0 0 0-1.731-2.708A3.97 3.97 0 0 0 204 49c0-2.206-1.794-4-4-4s-4 1.794-4 4c0 .854.274 1.642.731 2.292A2.997 2.997 0 0 0 195 54v4a1 1 0 0 0 1 1h1v3h2v-3h2v3h2zm0-5h-6v-3a1 1 0 0 1 1-1h4a1 1 0 0 1 1 1v3zm-3-10c1.103 0 2 .897 2 2s-.897 2-2 2-2-.897-2-2 .897-2 2-2zM215 61v-2h1a1 1 0 0 0 1-1v-4a2.997 2.997 0 0 0-1.731-2.708A3.97 3.97 0 0 0 216 49c0-2.206-1.794-4-4-4s-4 1.794-4 4c0 .854.274 1.642.731 2.292A2.997 2.997 0 0 0 207 54v4a1 1 0 0 0 1 1h1v2h2v-2h2v2h2zm0-4h-6v-3a1 1 0 0 1 1-1h4a1 1 0 0 1 1 1v3zm-3-10c1.103 0 2 .897 2 2s-.897 2-2 2-2-.897-2-2 .897-2 2-2zM239 61v-2h1a1 1 0 0 0 1-1v-4a2.997 2.997 0 0 0-1.731-2.708A3.97 3.97 0 0 0 240 49c0-2.206-1.794-4-4-4s-4 1.794-4 4c0 .854.274 1.642.731 2.292A2.997 2.997 0 0 0 231 54v4a1 1 0 0 0 1 1h1v2h2v-2h2v2h2zm0-4h-6v-3a1 1 0 0 1 1-1h4a1 1 0 0 1 1 1v3zm-3-10c1.103 0 2 .897 2 2s-.897 2-2 2-2-.897-2-2 .897-2 2-2zM243 54v4a1 1 0 0 0 1 1h1v2h2v-2h2v2h2v-2h1a1 1 0 0 0 1-1v-4a2.997 2.997 0 0 0-1.731-2.708A3.97 3.97 0 0 0 252 49c0-2.206-1.794-4-4-4s-4 1.794-4 4c0 .854.274 1.642.731 2.292A2.997 2.997 0 0 0 243 54zm8 3h-6v-3a1 1 0 0 1 1-1h4a1 1 0 0 1 1 1v3zm-3-10c1.103 0 2 .897 2 2s-.897 2-2 2-2-.897-2-2 .897-2 2-2zM219 54v4a1 1 0 0 0 1 1h1v2h2v-2h2v2h2v-2h1a1 1 0 0 0 1-1v-4a2.997 2.997 0 0 0-1.731-2.708A3.97 3.97 0 0 0 228 49c0-2.206-1.794-4-4-4s-4 1.794-4 4c0 .854.274 1.642.731 2.292A2.997 2.997 0 0 0 219 54zm8 3h-6v-3a1 1 0 0 1 1-1h4a1 1 0 0 1 1 1v3zm-3-10c1.103 0 2 .897 2 2s-.897 2-2 2-2-.897-2-2 .897-2 2-2zM253 17h-1V3a1 1 0 0 0-1-1h-28a1 1 0 0 0-1 1v14h-1a1 1 0 0 0-1 1v4a1 1 0 0 0 1 1h32a1 1 0 0 0 1-1v-4a1 1 0 0 0-1-1zM224 4h26v13h-26V4zm28 17h-30v-2h30v2zM197 29h1v10.5c0 1.93 1.57 3.5 3.5 3.5.979 0 1.864-.403 2.5-1.053A3.49 3.49 0 0 0 206.5 43c1.93 0 3.5-1.57 3.5-3.5V20h6c.379 0 .725-.214.895-.553l2.678-5.355a2.906 2.906 0 0 0 .117-2.333 2.688 2.688 0 0 0-1.535-1.558 2.792 2.792 0 0 0-3.543 1.341L213.382 14h-5.407a4.948 4.948 0 0 0 1.026-3c0-2.757-2.243-5-5-5s-5 2.243-5 5c0 1.13.391 2.162 1.026 3H199c-2.757 0-5 2.243-5 5v7c0 1.654 1.346 3 3 3zm4-18c0-1.654 1.346-3 3-3s3 1.346 3 3-1.346 3-3 3-3-1.346-3-3zm-5 8c0-1.654 1.346-3 3-3h15c.379 0 .725-.214.895-.553l1.506-3.011a.79.79 0 0 1 1.021-.374.698.698 0 0 1 .4.413.903.903 0 0 1-.039.723L215.382 18H209a1 1 0 0 0-1 1v20.5c0 .827-.673 1.5-1.5 1.5s-1.5-.673-1.5-1.5V27a1 1 0 1 0-2 0v12.5c0 .827-.673 1.5-1.5 1.5s-1.5-.673-1.5-1.5V20h-2v7h-1a1 1 0 0 1-1-1v-7zM291 55h1v5h-1v2h4v-2h-1v-5h2v3h2v-3h3v3h2v-3h1v5h-1v2h4v-2h-1v-5h1a1 1 0 0 0 1-1v-6a1 1 0 0 0-1-1h-2v-3c0-2-1.188-3.717-2.889-4.516A3.96 3.96 0 0 0 303 37c0-2.206-1.794-4-4-4s-4 1.794-4 4c0 .943.341 1.799.889 2.484C294.188 40.283 293 42 293 44v3h-2a1 1 0 0 0-1 1v6a1 1 0 0 0 1 1zm8-20c1.103 0 2 .897 2 2s-.897 2-2 2-2-.897-2-2 .897-2 2-2zm-4 9c0-1.654 1.346-3 3-3h2c1.654 0 3 1.346 3 3v3h-8v-3zm-3 5h14v4h-14v-4zM328 55a1 1 0 0 0 1-1v-6a1 1 0 0 0-1-1h-2v-3c0-2-1.188-3.717-2.889-4.516A3.96 3.96 0 0 0 324 37c0-2.206-1.794-4-4-4s-4 1.794-4 4c0 .943.341 1.799.889 2.484C315.188 40.283 314 42 314 44v3h-2a1 1 0 0 0-1 1v6a1 1 0 0 0 1 1h1v5h-1v2h4v-2h-1v-5h2v3h2v-3h3v3h2v-3h1v5h-1v2h4v-2h-1v-5h1zm-8-20c1.103 0 2 .897 2 2s-.897 2-2 2-2-.897-2-2 .897-2 2-2zm-4 9c0-1.654 1.346-3 3-3h2c1.654 0 3 1.346 3 3v3h-8v-3zm-2 9h-1v-4h14v4h-13zM349 55a1 1 0 0 0 1-1v-6a1 1 0 0 0-1-1h-2v-3c0-2-1.188-3.717-2.889-4.516A3.96 3.96 0 0 0 345 37c0-2.206-1.794-4-4-4s-4 1.794-4 4c0 .943.341 1.799.889 2.484C336.188 40.283 335 42 335 44v3h-2a1 1 0 0 0-1 1v6a1 1 0 0 0 1 1h1v5h-1v2h4v-2h-1v-5h2v3h2v-3h3v3h2v-3h1v5h-1v2h4v-2h-1v-5h1zm-8-20c1.103 0 2 .897 2 2s-.897 2-2 2-2-.897-2-2 .897-2 2-2zm-4 9c0-1.654 1.346-3 3-3h2c1.654 0 3 1.346 3 3v3h-8v-3zm-2 9h-1v-4h14v4h-13zM308 27v-3h3v3h2v-3h1v5h-1v2h4v-2h-1v-5h1a1 1 0 0 0 1-1v-6a1 1 0 0 0-1-1h-2v-3c0-2-1.188-3.717-2.889-4.516A3.96 3.96 0 0 0 313 6c0-2.206-1.794-4-4-4s-4 1.794-4 4c0 .943.341 1.799.889 2.484C304.188 9.283 303 11 303 13v3h-2a1 1 0 0 0-1 1v6a1 1 0 0 0 1 1h1v5h-1v2h4v-2h-1v-5h2v3h2zm1-23c1.103 0 2 .897 2 2s-.897 2-2 2-2-.897-2-2 .897-2 2-2zm-4 9c0-1.654 1.346-3 3-3h2c1.654 0 3 1.346 3 3v3h-8v-3zm-2 9h-1v-4h14v4h-13zM330 24h3v3h2v-3h1v5h-1v2h4v-2h-1v-5h1a1 1 0 0 0 1-1v-6a1 1 0 0 0-1-1h-2v-3c0-2-1.188-3.717-2.889-4.516A3.96 3.96 0 0 0 335 6c0-2.206-1.794-4-4-4s-4 1.794-4 4c0 .943.341 1.799.889 2.484C326.188 9.283 325 11 325 13v3h-2a1 1 0 0 0-1 1v6a1 1 0 0 0 1 1h1v5h-1v2h4v-2h-1v-5h2v3h2v-3zm1-20c1.103 0 2 .897 2 2s-.897 2-2 2-2-.897-2-2 .897-2 2-2zm-4 9c0-1.654 1.346-3 3-3h2c1.654 0 3 1.346 3 3v3h-8v-3zm-2 9h-1v-4h14v4h-13zM291-340h5v4.333c0 4.779 3.888 8.667 8.667 8.667H306v5h2v-5h2v-2h-5.333a6.675 6.675 0 0 1-6.667-6.667V-341a1 1 0 0 0-1-1h-4.438l5.346-11.581A.992.992 0 0 0 298-354v-5c0-7.72 6.28-14 14-14v-2c-8.822 0-16 7.178-16 16v4.78l-5.908 12.801A1.002 1.002 0 0 0 291-340zM328.071-338.372l-2 5a1.004 1.004 0 0 0-.055.55l2 11 1.967-.357-1.948-10.717 1.894-4.732-1.858-.744zM342-370v3h-3v2h3v3h2v-3h3v-2h-3v-3zM336-381h6v2h-6zM324-379h6v2h-6zM326-382h2v2h-2zM326-376h2v2h-2zM324.707-353.293l2.293-2.293 2.293 2.293 1.414-1.414-2.293-2.293 2.293-2.293-1.414-1.414-2.293 2.293-2.293-2.293-1.414 1.414 2.293 2.293-2.293 2.293z" fill="#8bcad9" class="color000000 svgShape"></path>
  <path d="M313-366c0-1.103.897-2 2-2s2 .897 2 2-.897 2-2 2a1 1 0 0 0-1 1v2h2v-1.126a4.006 4.006 0 0 0 3-3.874c0-2.206-1.794-4-4-4s-4 1.794-4 4h2zM314-359h2v2h-2zM334-352v16a1 1 0 0 0 1 1h14a1 1 0 0 0 1-1v-16a1 1 0 0 0-1-1h-14a1 1 0 0 0-1 1zm2 1h12v14h-12v-14z" fill="#8bcad9" class="color000000 svgShape"></path>
  <path d="M338-349h8v2h-8zM338-345h8v2h-8zM195-340h5v4.333c0 4.779 3.888 8.667 8.667 8.667H210v5h2v-5h2v-2h-5.333a6.675 6.675 0 0 1-6.667-6.667V-341a1 1 0 0 0-1-1h-4.438l5.346-11.581A.992.992 0 0 0 202-354v-5c0-7.72 6.28-14 14-14h5v-2h-5c-8.822 0-16 7.178-16 16v4.78l-5.908 12.801A1.002 1.002 0 0 0 195-340zM239-347h-2c0 3.003-1.016 5.962-2.858 8.333l-3.931 5.053a.994.994 0 0 0-.194.792l2 11 1.967-.357-1.92-10.56 3.656-4.701A15.647 15.647 0 0 0 239-347z" fill="#8bcad9" class="color000000 svgShape"></path>
  <path d="M253-382h-20a1 1 0 0 0-1 1v4h-8a1 1 0 0 0-1 1v7.586l-2.293-2.293a.999.999 0 0 0-1.677.464l-.889 3.554-1.589.794c-.338.17-.552.516-.552.895v1.5l-3.6 2.7a.998.998 0 0 0-.4.8v2c0 .265.105.52.293.707l1 1A.996.996 0 0 0 214-356h2c.155 0 .309-.036.447-.105l1.355-.678.49.49A1 1 0 0 0 219-356h.585l-.464.464a10.573 10.573 0 0 0-3.072 6.536H215c-.459 0-.858.313-.97.757l-1 4A.998.998 0 0 0 214-343h16a.998.998 0 0 0 .97-1.243l-1-4A1 1 0 0 0 229-349h-.961a17.16 17.16 0 0 1 .224-2H244a1 1 0 0 0 1-1v-4h8a1 1 0 0 0 1-1v-24a1 1 0 0 0-1-1zm-24.281 37h-13.438l.5-2h12.438l.5 2zm-10.662-4a8.596 8.596 0 0 1 2.479-5.122l2.172-2.171A1 1 0 0 0 222-358h-2.586l-.707-.707a1.003 1.003 0 0 0-1.154-.188l-1.789.895h-1.35l-.414-.414v-1.086l3.6-2.7a.998.998 0 0 0 .4-.8v-1.382l1.447-.724a.998.998 0 0 0 .522-.652l.572-2.287 1.751 1.751A.996.996 0 0 0 223-366c.303 0 .597.038.885.089.176.031.342.085.51.133.139.041.28.077.414.129.134.052.26.117.388.179.16.079.319.16.469.255.097.061.189.129.281.196a5.15 5.15 0 0 1 .678.594c.148.157.285.324.412.499.054.075.11.149.16.227.118.184.22.378.314.577.04.085.085.166.12.254.085.209.147.429.203.651.022.086.053.169.07.257.061.311.097.631.097.96v3.838l-1.012 3.034c-.102.307-.196.63-.287.972a19.15 19.15 0 0 0-.675 4.156h-7.97zM243-353h-14.258c.05-.165.089-.332.143-.496l1.063-3.188c.034-.102.052-.209.052-.316v-4c0-.352-.034-.695-.084-1.033-.01-.066-.018-.133-.029-.198a7.037 7.037 0 0 0-.227-.91c-.027-.085-.058-.168-.089-.252a7.03 7.03 0 0 0-.335-.781c-.047-.092-.1-.18-.151-.269a6.928 6.928 0 0 0-.359-.566c-.067-.095-.13-.191-.202-.283a7.18 7.18 0 0 0-.791-.853 7.007 7.007 0 0 0-.645-.532c-.068-.048-.138-.091-.208-.137a7.008 7.008 0 0 0-.759-.445c-.028-.014-.054-.031-.082-.044a7.01 7.01 0 0 0-1-.386c-.013-.004-.025-.011-.039-.015V-375h18v22zm9-5h-7v-18a1 1 0 0 0-1-1h-10v-3h18v22z" fill="#8bcad9" class="color000000 svgShape"></path>
  <path d="M227-373h14v2h-14zM229-369h12v2h-12zM232-365h9v2h-9zM232-361h9v2h-9zM232-357h9v2h-9zM247-378h3v2h-3zM247-374h3v2h-3zM247-370h3v2h-3zM247-366h3v2h-3zM247-362h3v2h-3zM338-341h8v2h-8zM313.01-350.33c-2.923-1.805-5.672-2.183-7.116-.741-1.442 1.443-1.065 4.191.741 7.115-1.777 2.903-2.141 5.626-.707 7.061.601.601 1.427.887 2.397.887 1.354 0 2.99-.57 4.686-1.612 1.675 1.018 3.29 1.577 4.628 1.577.971 0 1.797-.287 2.397-.887 1.428-1.429 1.073-4.136-.685-7.026 1.788-2.911 2.157-5.644.72-7.082-1.433-1.433-4.157-1.069-7.061.708zm-5.701.673c.205-.205.548-.307.986-.307.501 0 1.126.133 1.812.396.358.138.726.316 1.097.511-.584.468-1.167.983-1.738 1.554a21.157 21.157 0 0 0-1.553 1.736c-.98-1.867-1.132-3.362-.604-3.89zm5.69 1.75a18.103 18.103 0 0 1 3.94 3.948 18.16 18.16 0 0 1-1.818 2.115c-.711.71-1.42 1.309-2.108 1.813a18.187 18.187 0 0 1-3.962-3.928 18 18 0 0 1 1.828-2.128 18.037 18.037 0 0 1 2.12-1.82zm-5.656 9.598c-.522-.522-.377-1.995.576-3.839.456.566.958 1.13 1.512 1.683a21.058 21.058 0 0 0 1.769 1.571c-1.852.962-3.332 1.109-3.857.585zm11.28-.034c-.439.439-1.513.404-2.798-.09a10.345 10.345 0 0 1-1.007-.469 21.116 21.116 0 0 0 1.717-1.528 20.95 20.95 0 0 0 1.532-1.71c.935 1.823 1.074 3.278.556 3.797zm.034-11.28c.523.524.377 2.002-.582 3.851a21.053 21.053 0 0 0-3.257-3.274c1.146-.593 2.151-.877 2.871-.877.437-.001.77.102.968.3zM329-369c0 1.654 1.346 3 3 3s3-1.346 3-3-1.346-3-3-3-3 1.346-3 3zm3-1a1.001 1.001 0 1 1-1 1c0-.551.448-1 1-1zM-137-82h-3.111A6.977 6.977 0 0 0-138-87c0-3.859-3.14-7-7-7s-7 3.141-7 7c0 1.958.81 3.728 2.111 5H-153c-3.86 0-7 3.141-7 7 0-3.859-3.14-7-7-7h-3.111A6.977 6.977 0 0 0-168-87c0-3.859-3.14-7-7-7s-7 3.141-7 7c0 1.958.81 3.728 2.111 5H-183c-3.86 0-7 3.141-7 7v12c0 2.206 1.794 4 4 4 .732 0 1.409-.212 2-.556V-39c0 2.757 2.243 5 5 5 1.641 0 3.088-.806 4-2.031.912 1.225 2.359 2.031 4 2.031 2.757 0 5-2.243 5-5v-20.556a3.959 3.959 0 0 0 2 .556c2.206 0 4-1.794 4-4 0 2.206 1.794 4 4 4 .56 0 1.093-.118 1.577-.326l-1.565 10.174A.995.995 0 0 0-155-48h2v9.5c0 2.481 2.019 4.5 4.5 4.5 1.421 0 2.675-.675 3.5-1.706.825 1.032 2.079 1.706 3.5 1.706 2.481 0 4.5-2.019 4.5-4.5V-48h2a.998.998 0 0 0 .988-1.153l-1.565-10.174A3.97 3.97 0 0 0-134-59c2.206 0 4-1.794 4-4v-12c0-3.859-3.14-7-7-7zm-43-5c0-2.757 2.243-5 5-5s5 2.243 5 5-2.243 5-5 5-5-2.243-5-5zm10.919 7-2.4 3h-7.038l-2.4-3h11.838zM-172-75v10h-6v-10h6zm-14 14c-1.103 0-2-.897-2-2v-12c0-2.605 2.009-4.726 4.555-4.955l3.445 4.306v7.869l-2 .5V-75h-2v12c0 1.103-.897 2-2 2zm18 22c0 1.654-1.346 3-3 3s-3-1.346-3-3v-20h-2v20c0 1.654-1.346 3-3 3s-3-1.346-3-3v-26.22l2-.5V-64a1 1 0 0 0 1 1h8a1 1 0 0 0 1-1v-1.72l2 .5V-39zm6-24c0 1.103-.897 2-2 2s-2-.897-2-2v-12h-2v7.72l-2-.5v-7.869l3.445-4.306c2.546.229 4.555 2.35 4.555 4.955v12zm12-24c0-2.757 2.243-5 5-5s5 2.243 5 5-2.243 5-5 5-5-2.243-5-5zm10.919 7-2.4 3h-7.038l-2.4-3h11.838zM-142-75v10h-6v-10h6zm-14 14c-1.103 0-2-.897-2-2v-12c0-2.605 2.009-4.726 4.555-4.955l3.445 4.306v7.869l-2 .5V-75h-2v12c0 1.103-.897 2-2 2zm7.5 25a2.503 2.503 0 0 1-2.5-2.5V-48h5v9.5c0 1.379-1.122 2.5-2.5 2.5zm9.5-2.5c0 1.379-1.122 2.5-2.5 2.5s-2.5-1.121-2.5-2.5V-48h5v9.5zm1-11.5h-15.834l1.823-11.848c.007-.05.011-.101.011-.152v-3.22l2-.5V-64a1 1 0 0 0 1 1h8a1 1 0 0 0 1-1v-1.72l2 .5V-62c0 .051.004.102.012.152L-136.166-50H-138zm6-13c0 1.103-.897 2-2 2s-2-.897-2-2v-12h-2v7.72l-2-.5v-7.869l3.445-4.306c2.546.229 4.555 2.35 4.555 4.955v12zM149 42.051V41c0-3.401-2.44-6.241-5.66-6.868A5.972 5.972 0 0 0 145 30c0-3.309-2.691-6-6-6s-6 2.691-6 6c0 1.602.634 3.055 1.66 4.132-3.22.627-5.66 3.467-5.66 6.868v4a1 1 0 0 0 1 1h10.019A9.933 9.933 0 0 0 138 52c0 5.514 4.486 10 10 10s10-4.486 10-10c0-5.176-3.954-9.446-9-9.949zM139 26c2.206 0 4 1.794 4 4s-1.794 4-4 4-4-1.794-4-4 1.794-4 4-4zm-8 15c0-2.757 2.243-5 5-5h6c2.757 0 5 2.243 5 5v1.051c-.425.042-.84.119-1.248.213-.076.018-.15.039-.225.058-.352.09-.696.198-1.033.324-.061.023-.123.043-.184.068a9.88 9.88 0 0 0-1.14.536c-.036.02-.069.043-.105.064-.316.18-.618.378-.911.591-.048.035-.101.061-.148.096H131V41zm17 19c-4.411 0-8-3.589-8-8a7.997 7.997 0 0 1 3.49-6.602l.059-.042c.2-.135.407-.26.619-.376.038-.021.077-.038.115-.058.183-.097.37-.188.561-.271l.143-.058a8.345 8.345 0 0 1 .73-.258c.183-.055.37-.102.559-.144.065-.014.129-.029.194-.042a8.12 8.12 0 0 1 .569-.087c.065-.008.129-.019.195-.025A8.79 8.79 0 0 1 148 44c4.411 0 8 3.589 8 8s-3.589 8-8 8z" fill="#8bcad9" class="color000000 svgShape"></path>
  <path d="M149 47h-2v4h-4v2h4v4h2v-4h4v-2h-4zM107 33h22a1 1 0 0 0 1-1v-8c0-.009-.005-.017-.005-.027a1.027 1.027 0 0 0-.046-.29l-2-6A1 1 0 0 0 127 17h-5v-1a.997.997 0 0 0-.419-.813L115 10.486V8h5a1 1 0 0 0 1-1V3a1 1 0 0 0-1-1h-6a1 1 0 0 0-1 1v7.486l-6.581 4.701A.997.997 0 0 0 106 16v1h-5a.997.997 0 0 0-.948.684l-2 6a.96.96 0 0 0-.046.29c-.001.009-.006.017-.006.026v8a1 1 0 0 0 1 1h8zm-7-8h6v6h-6v-6zm12 6v-3c0-1.103.897-2 2-2s2 .897 2 2v3h-4zm16 0h-6v-6h6v6zm-1.721-12 1.333 4H122v-4h4.279zM115 4h4v2h-4V4zm-7 12.515 6-4.286 6 4.286V31h-2v-3c0-2.206-1.794-4-4-4s-4 1.794-4 4v3h-2V16.515zM101.721 19H106v4h-5.612l1.333-4z" fill="#8bcad9" class="color000000 svgShape"></path>
  <path d="M114 22c1.654 0 3-1.346 3-3s-1.346-3-3-3-3 1.346-3 3 1.346 3 3 3zm0-4a1 1 0 1 1 0 2 1 1 0 0 1 0-2zM102 27h2v2h-2zM124 27h2v2h-2zM138 20h2v2h-2zM138 16h2v2h-2zM138 12h2v2h-2zM134 12h2v2h-2zM130 12h2v2h-2zM125 44h2v2h-2zM121 44h2v2h-2zM117 44h2v2h-2zM109 44h2v2h-2zM109 40h2v2h-2zM109 36h2v2h-2zM113 44h2v2h-2zM294.293-253.293A.996.996 0 0 0 295-253h4.586l1 1-3.793 3.793a3.125 3.125 0 0 0 0 4.414c.589.59 1.373.915 2.207.915s1.618-.325 2.207-.915l3.793-3.793 3.793 3.793c.589.59 1.373.915 2.207.915s1.618-.325 2.207-.915a3.125 3.125 0 0 0 0-4.414l-4.063-4.063.804-2.413a.999.999 0 0 0-.067-.784l2.119-2.119.293.293a.997.997 0 0 0 1.023.242l3-1c.251-.084.459-.264.578-.501l2-4a1 1 0 0 0-.188-1.154l-2-2a1.006 1.006 0 0 0-1.154-.188l-4 2a1 1 0 0 0-.501.578l-1 3a1 1 0 0 0 .241 1.023l.293.293-2.118 2.118a.999.999 0 0 0-.784-.067l-2.414.805-1.27-1.27V-262a.997.997 0 0 0-.293-.707l-4-4A.992.992 0 0 0 299-267h-3a1 1 0 0 0-1 1v2c0 .265.105.52.293.707l1.707 1.707V-260h-1.586l-1.707-1.707A.996.996 0 0 0 293-262h-2a1 1 0 0 0-1 1v3c0 .265.105.52.293.707l4 4zm18.524-8.998 2.985-1.492.98.98-1.492 2.985-2.021.674-1.126-1.126.674-2.021zm-13.024 17.084a1.148 1.148 0 0 1-1.586 0 1.123 1.123 0 0 1 0-1.586l4.5-4.5 2.833-2.833 2.189-.73.126.126-.729 2.19-2.833 2.833-4.5 4.5zm12 0a1.148 1.148 0 0 1-1.586 0L306.414-249l1.586-1.586 3.793 3.793a1.125 1.125 0 0 1 0 1.586zM292-260h.586l1.707 1.707A.996.996 0 0 0 295-258h3a1 1 0 0 0 1-1v-3a.997.997 0 0 0-.293-.707L297-264.414V-265h1.586l3.414 3.414V-257c0 .265.105.52.293.707l1.293 1.293-1.586 1.586-1.293-1.293A.996.996 0 0 0 300-255h-4.586L292-258.414V-260zM313-268h14a1 1 0 0 0 1-1v-6.126a4.006 4.006 0 0 0 3-3.874c0-2.206-1.794-4-4-4-.295 0-.587.034-.875.102-1.216-1.886-3.56-3.102-6.125-3.102s-4.909 1.215-6.125 3.102A3.853 3.853 0 0 0 313-283c-2.206 0-4 1.794-4 4a4.008 4.008 0 0 0 3 3.874V-269a1 1 0 0 0 1 1zm-2-11c0-1.402 1.509-2.476 2.896-1.774a1 1 0 0 0 1.373-.5c.691-1.63 2.593-2.725 4.73-2.725s4.039 1.095 4.73 2.725a1 1 0 0 0 1.373.5c1.388-.701 2.896.372 2.896 1.774 0 1.103-.897 2-2 2a1 1 0 0 0-1 1v6h-2v-3h-2v3h-4v-3h-2v3h-2v-6a1 1 0 0 0-1-1 2.002 2.002 0 0 1-1.998-2zM349.707-247.707 343.414-254l2.293-2.293 2.379-2.379c.59-.589.914-1.373.914-2.207 0-1.721-1.4-3.121-3.121-3.121-.822 0-1.626.333-2.207.914l-2.379 2.379-2.293 2.293-6.293-6.293a.999.999 0 0 0-1.414 0l-5 5a.999.999 0 0 0 0 1.414l6.293 6.293-2.293 2.293c-.052.052-.079.117-.117.176-.02.031-.054.05-.071.084l-3 6a1 1 0 0 0 1.342 1.342l6-3c.033-.017.052-.05.083-.07.06-.038.124-.065.176-.117l2.293-2.293 6.293 6.293a.997.997 0 0 0 1.414 0l5-5a1 1 0 0 0 .001-1.415zm-4.621-13.965a1.122 1.122 0 0 1 1.586 1.586L345-258.414 343.414-260l1.672-1.672zM328.414-259l3.586-3.586 1.586 1.586-1.293 1.293 1.414 1.414 1.293-1.293 2.586 2.586-3.586 3.586-5.586-5.586zm6.293 7.707 5-5 2.293-2.293 1.586 1.586-2.293 2.293-5 5-2.293 2.293-1.586-1.586 2.293-2.293zm-4.471 6.057 1.038-2.076.519.519.519.519-2.076 1.038zM344-243.414 338.414-249l3.586-3.586 1.586 1.586-1.293 1.293 1.414 1.414 1.293-1.293 2.586 2.586-3.586 3.586zM310-229v2a1 1 0 0 0 1 1h18a1 1 0 0 0 1-1v-2c0-3.401-2.44-6.241-5.66-6.868A5.972 5.972 0 0 0 326-240c0-3.309-2.691-6-6-6s-6 2.691-6 6c0 1.602.634 3.055 1.66 4.132-3.22.627-5.66 3.467-5.66 6.868zm10-15c2.206 0 4 1.794 4 4s-1.794 4-4 4-4-1.794-4-4 1.794-4 4-4zm-3 10h6c2.757 0 5 2.243 5 5v1h-16v-1c0-2.757 2.243-5 5-5zM306.986-277.35l1.043 1.707a22.99 22.99 0 0 1 1.43-.805l-.918-1.776c-.529.273-1.048.565-1.555.874zM298.346-268.501l1.73 1.003c.323-.558.669-1.102 1.028-1.616l-1.641-1.145c-.39.561-.766 1.152-1.117 1.758zM303.628-274.894l1.311 1.511c.482-.419.986-.82 1.498-1.194l-1.18-1.615a24.57 24.57 0 0 0-1.629 1.298zM303.544-272.067l-1.43-1.398a25.155 25.155 0 0 0-1.393 1.549l1.541 1.273c.405-.489.837-.968 1.282-1.424zM306.366-237.474l-1.186 1.61c.558.411 1.139.803 1.727 1.165l1.049-1.703a22.683 22.683 0 0 1-1.59-1.072z" fill="#8bcad9" class="color000000 svgShape"></path>
  <path d="M299.408-241.816c.396.572.817 1.132 1.254 1.663l1.545-1.27a23.204 23.204 0 0 1-1.154-1.531l-1.645 1.138zM304.874-238.673c-.476-.416-.943-.86-1.392-1.321l-1.434 1.395c.485.499.993.981 1.509 1.432l1.317-1.506zM308.725-233.681c.617.313 1.256.603 1.897.862l.75-1.854a22.593 22.593 0 0 1-1.743-.793l-.904 1.785zM328.994-234.826l.783 1.841a24.913 24.913 0 0 0 1.881-.895l-.934-1.769c-.561.297-1.143.574-1.73.823zM340.833-242.176l-1.666-1.106a23.544 23.544 0 0 1-1.126 1.55l1.568 1.241c.433-.548.845-1.114 1.224-1.685zM335.423-238.938l1.34 1.484c.51-.459 1.01-.951 1.486-1.46l-1.459-1.367c-.439.469-.899.921-1.367 1.343zM335.164-236.122l-1.215-1.59c-.51.39-1.037.759-1.568 1.099l1.076 1.686c.578-.37 1.152-.772 1.707-1.195zM333.269-277.192a25.275 25.275 0 0 0-1.81-1.033l-.918 1.777a23.03 23.03 0 0 1 1.665.95l1.063-1.694zM343.533-264.455a24.308 24.308 0 0 0-.786-1.93l-1.818.832c.265.58.508 1.176.722 1.772l1.882-.674zM334.984-276.014l-1.199 1.601c.51.382 1.01.791 1.484 1.212l1.328-1.494a24.703 24.703 0 0 0-1.613-1.319zM336.647-271.87c.439.461.865.946 1.265 1.441l1.557-1.257a25.778 25.778 0 0 0-1.374-1.564l-1.448 1.38zM339.052-268.889c.354.521.693 1.07 1.011 1.631l1.74-.984a25.698 25.698 0 0 0-1.095-1.768l-1.656 1.121zM119.054-364.673l-1.979-.296c-.103.684-.17 1.389-.2 2.095l1.998.087a17.95 17.95 0 0 1 .181-1.886zM123.729-374.317l-1.459-1.367c-.356.38-.698.774-1.025 1.182l1.561 1.251c.294-.368.602-.723.923-1.066zM121.7-371.714l-1.684-1.081c-.379.591-.73 1.207-1.042 1.829l1.787.896c.282-.559.597-1.113.939-1.644zM120.117-355.368a18.202 18.202 0 0 1-.604-1.796l-1.926.539c.189.676.415 1.347.671 1.993l1.859-.736zM120.002-368.334l-1.871-.704a19.88 19.88 0 0 0-.636 2.007l1.936.501a17.8 17.8 0 0 1 .571-1.804zM116.896-360.771c.043.701.122 1.404.236 2.089l1.973-.328a18.317 18.317 0 0 1-.213-1.883l-1.996.122zM155.734-366.767l1.971-.343a19.963 19.963 0 0 0-.47-2.051l-1.924.549c.173.605.316 1.226.423 1.845zM155.959-364.887a18.372 18.372 0 0 1 .029 1.896l1.998.074a20.983 20.983 0 0 0-.031-2.102l-1.996.132zM152.919-373.738l1.656-1.121a19.897 19.897 0 0 0-1.269-1.678l-1.529 1.288c.405.481.789.989 1.142 1.511zM154.695-370.402l1.855-.747a19.914 19.914 0 0 0-.89-1.908l-1.766.941c.297.554.567 1.131.801 1.714zM156.771-356.745l-1.877-.691c-.218.592-.47 1.177-.748 1.738l1.793.888c.309-.626.588-1.276.832-1.935zM151.869-378.073a19.981 19.981 0 0 0-1.59-1.377l-1.229 1.577a18.3 18.3 0 0 1 1.432 1.242l1.387-1.442zM152.212-352.615l1.576 1.229c.396-.507.772-1.042 1.12-1.592l-1.689-1.069c-.314.495-.652.976-1.007 1.432zM157.8-360.821l-1.98-.282a17.942 17.942 0 0 1-.365 1.858l1.939.49c.169-.675.306-1.37.406-2.066z" fill="#8bcad9" class="color000000 svgShape"></path>
</svg>
