<svg width="115" height="63" viewBox="0 0 115 63" fill="none" xmlns="http://www.w3.org/2000/svg">
<path d="M112.125 57.2727H2.875C1.28729 57.2727 0 58.5549 0 60.1364C0 61.7178 1.28729 63 2.875 63H112.125C113.713 63 115 61.7178 115 60.1364C115 58.5549 113.713 57.2727 112.125 57.2727ZM2.875 5.72727H112.125C113.713 5.72727 115 4.44507 115 2.86364C115 1.2822 113.713 0 112.125 0H2.875C1.28729 0 0 1.2822 0 2.86364C0 4.44507 1.28729 5.72727 2.875 5.72727ZM112.125 28.6364H2.875C1.28729 28.6364 0 29.9186 0 31.5C0 33.0814 1.28729 34.3636 2.875 34.3636H112.125C113.713 34.3636 115 33.0814 115 31.5C115 29.9186 113.713 28.6364 112.125 28.6364Z" fill="#3887A6"/>
</svg>
