<svg width="42" height="47" viewBox="0 0 42 47" fill="none" xmlns="http://www.w3.org/2000/svg">
<path d="M16.3698 41.125C17.6037 42.3438 19.2248 43.0833 21 43.0833C22.7752 43.0833 24.3962 42.3438 25.6301 41.125M24.5003 33.2916H32.5694C34.6629 33.2916 35.7096 33.2916 35.9418 33.0989C36.1989 32.8855 36.2666 32.7494 36.2927 32.3924C36.3161 32.0698 35.6735 30.914 34.388 28.6022C32.8641 25.8617 31.5 21.7183 31.5 15.6666C31.5 12.5503 30.3938 9.56168 28.4245 7.35812C26.4554 5.15457 23.7847 3.91663 21 3.91663C18.2152 3.91663 15.5445 5.15457 13.5753 7.35812C11.6062 9.56168 10.5 12.5503 10.5 15.6666C10.5 21.7183 9.13579 25.8617 7.61187 28.6022C6.32644 30.914 5.68372 32.0698 5.70729 32.3924C5.73338 32.7494 5.80097 32.8855 6.05808 33.0989C6.29027 33.2916 7.337 33.2916 9.43045 33.2916H17.5003" stroke="#8BCAD9" stroke-width="2" stroke-linecap="round" stroke-linejoin="round"/>
</svg>
