<svg xmlns="http://www.w3.org/2000/svg" viewBox="0 0 512 512" id="Pdf">
  <path fill="#bf8a8b" d="M183.319,66.679H485.185c8.729,0,15.815,7.087,15.815,15.815V485.184c0,8.729-7.087,15.816-15.816,15.816H183.318c-8.729,0-15.815-7.087-15.815-15.815V82.495c0-8.729,7.087-15.816,15.816-15.816Z" class="color8a96bf svgShape"></path>
  <path fill="#dba8a9" fill-rule="evenodd" d="M167.503,485.185V164.698c0-6.805,2.426-12.661,7.237-17.472l73.31-73.309c4.812-4.812,10.668-7.237,17.472-7.237h219.662c5.508,0,10,4.492,10,10V483.185c0,6.609-5.391,12-12,12H177.503c-5.506,0-10-4.492-10-10Z" class="colora8b4db svgShape"></path>
  <path fill="#bf8a8b" fill-rule="evenodd" d="M111.824,429.506V109.019c0-6.805,2.426-12.661,7.237-17.472L192.371,18.237c4.811-4.812,10.668-7.237,17.472-7.237h219.662c8.711,0,15.816,7.105,15.816,15.815V429.506c0,8.711-7.105,15.815-15.816,15.815H127.639c-8.711,0-15.816-7.104-15.816-15.815Z" class="color8a96bf svgShape"></path>
  <path fill="#fad2d3" fill-rule="evenodd" d="M111.824,429.506V109.019c0-6.805,2.426-12.661,7.237-17.472L192.371,18.237c4.812-4.811,10.668-7.237,17.472-7.237h219.662c5.508,0,10,4.492,10,10V427.506c0,6.609-5.391,12-12,12H121.824c-5.506,0-10-4.492-10-10Z" class="colord2dbfa svgShape"></path>
  <path fill="#bf8a8b" fill-rule="evenodd" d="M192.371,18.237c4.811-4.812,10.668-7.237,17.472-7.237h6.272c-8.989,3.709-15.359,12.579-15.359,22.867v50.254c0,8.709-7.103,15.813-15.812,15.813h-50.254c-10.286,0-19.158,6.369-22.867,15.359v-6.272c0-6.805,2.426-12.661,7.237-17.472L192.371,18.237Z" class="color8a96bf svgShape"></path>
  <path fill="#dba8a9" fill-rule="evenodd" d="M192.371,18.237c4.811-4.812,10.668-7.237,17.472-7.237h6.272c-7.646,1.416-20.757,8.732-20.757,22.867v50.254c0,5.73-4.684,10.415-10.414,10.415h-50.254c-6.807,0-18.704,2.786-22.867,20.757v-6.272c0-6.805,2.426-12.661,7.237-17.472L192.371,18.237Z" class="colora8b4db svgShape"></path>
  <path fill="#ba0409" d="M26.815,231.711H373.826c8.729,0,15.816,7.087,15.816,15.816v126.299c0,8.729-7.087,15.816-15.816,15.816H26.815c-8.729,0-15.815-7.086-15.815-15.815v-126.3c0-8.729,7.087-15.815,15.815-15.815Z" class="colorba0404 svgShape"></path>
  <path fill="#ed3237" fill-rule="evenodd" d="M11.465,377.631c-.303-1.219-.465-2.493-.465-3.804v-126.299c0-8.711,7.104-15.816,15.815-15.816H367.63c5.508,0,10,4.492,10,10v123.919c0,6.608-5.392,12-12,12H11.465Z" class="colored2f2f svgShape"></path>
  <path fill="#f3eded" fill-rule="evenodd" d="M312.714,274.949c0,4.418-3.582,8.001-8,8.001h-36.149v20.351h31.174c4.418,0,7.999,3.583,7.999,8.001s-3.581,8.001-7.999,8.001h-31.174v27.105c0,4.418-3.582,7.996-8,7.996s-8-3.578-8-7.996v-71.46c0-4.418,3.582-8.001,8-8.001h44.149c4.418,0,8,3.584,8,8.001h0Zm-114.623,63.459h-16.935v-55.458h16.935c15.29,0,27.731,12.438,27.731,27.729s-12.441,27.729-27.731,27.729h0Zm0-71.46h-24.934c-4.42,0-8.001,3.584-8.001,8.001v71.46c0,4.418,3.582,7.996,8.001,7.996h24.934c24.114,0,43.729-19.615,43.729-43.726s-19.616-43.731-43.729-43.731h0Zm-71.781,42.038h-22.381v-26.035h22.381c7.177,0,13.017,5.836,13.017,13.017s-5.841,13.018-13.017,13.018h0Zm0-42.038h-30.38c-4.419,0-8.001,3.584-8.001,8.001v71.46c0,4.418,3.582,7.996,8.001,7.996s8-3.578,8-7.996v-21.421h22.381c15.999,0,29.017-13.018,29.017-29.02s-13.017-29.02-29.017-29.02Z" class="coloredeff3 svgShape"></path>
</svg>
