<svg xmlns="http://www.w3.org/2000/svg" enable-background="new 0 0 512 512" viewBox="0 0 512 512" id="quiz">
  <path fill="#8bcad9" d="M167.271 288.339c3.509 2.376 7.34 4.684 11.497 6.923 4.156 2.241 6.91 4.022 8.259 5.344 1.348 1.323 2.024 3.198 2.024 5.627 0 1.727-.797 3.454-2.388 5.182-1.593 1.727-3.522 2.591-5.789 2.591-1.836 0-4.063-.595-6.681-1.781-2.619-1.188-5.696-2.915-9.23-5.182-3.536-2.267-7.409-4.911-11.62-7.935-7.828 3.994-17.436 5.991-28.826 5.991-9.23 0-17.503-1.471-24.817-4.412-7.315-2.942-13.455-7.179-18.421-12.713-4.967-5.533-8.704-12.105-11.214-19.716-2.51-7.611-3.765-15.897-3.765-24.858 0-9.122 1.308-17.489 3.927-25.101 2.618-7.611 6.409-14.089 11.376-19.433 4.966-5.344 11.012-9.433 18.137-12.267 7.125-2.834 15.222-4.251 24.291-4.251 12.307 0 22.874 2.497 31.7 7.49 8.826 4.993 15.506 12.092 20.04 21.295 4.535 9.204 6.802 20.013 6.802 32.428C182.574 262.402 177.473 277.327 167.271 288.339zM148.405 275.222c3.346-3.832 5.816-8.366 7.408-13.603 1.592-5.235 2.388-11.308 2.388-18.218 0-8.691-1.404-16.221-4.21-22.591-2.807-6.368-6.815-11.186-12.024-14.453-5.21-3.265-11.188-4.899-17.935-4.899-4.805 0-9.244.905-13.319 2.713-4.077 1.809-7.585 4.441-10.526 7.894-2.943 3.455-5.263 7.868-6.963 13.239-1.701 5.372-2.551 11.404-2.551 18.097 0 13.657 3.184 24.17 9.555 31.538 6.368 7.368 14.412 11.053 24.129 11.053 3.994 0 8.097-.836 12.307-2.51-2.538-1.888-5.709-3.777-9.514-5.668-3.805-1.889-6.41-3.346-7.814-4.372-1.404-1.025-2.105-2.483-2.105-4.372 0-1.62.675-3.049 2.025-4.291 1.348-1.241 2.834-1.862 4.453-1.862C128.621 262.915 136.853 267.017 148.405 275.222zM259.011 292.631v-2.834c-2.646 3.348-5.425 6.154-8.34 8.421-2.915 2.267-6.1 3.955-9.554 5.061-3.455 1.106-7.396 1.66-11.822 1.66-5.344 0-10.135-1.107-14.372-3.32-4.238-2.213-7.517-5.263-9.838-9.15-2.754-4.696-4.13-11.443-4.13-20.243v-43.805c0-4.425.998-7.733 2.996-9.919 1.997-2.186 4.642-3.279 7.935-3.279 3.346 0 6.045 1.107 8.097 3.32 2.051 2.214 3.077 5.506 3.077 9.878v35.384c0 5.129.431 9.433 1.295 12.915.863 3.481 2.415 6.208 4.657 8.178 2.239 1.971 5.275 2.955 9.109 2.955 3.725 0 7.232-1.106 10.526-3.32 3.292-2.213 5.695-5.101 7.206-8.664 1.241-3.13 1.863-9.986 1.863-20.567v-26.882c0-4.372 1.025-7.665 3.077-9.878 2.05-2.213 4.723-3.32 8.016-3.32 3.291 0 5.937 1.093 7.935 3.279 1.996 2.186 2.996 5.493 2.996 9.919v64.047c0 4.21-.959 7.368-2.875 9.473-1.917 2.105-4.386 3.158-7.408 3.158-3.024 0-5.52-1.093-7.489-3.279C259.995 299.634 259.011 296.572 259.011 292.631zM312.936 204.94c-3.077 0-5.709-.944-7.895-2.834-2.186-1.889-3.279-4.561-3.279-8.016 0-3.13 1.12-5.708 3.36-7.732 2.239-2.025 4.845-3.037 7.814-3.037 2.861 0 5.397.918 7.612 2.753 2.212 1.836 3.319 4.508 3.319 8.016 0 3.401-1.08 6.06-3.238 7.976C318.469 203.982 315.904 204.94 312.936 204.94zM323.867 227.774v63.885c0 4.427-1.052 7.773-3.157 10.041-2.106 2.267-4.778 3.4-8.016 3.4-3.239 0-5.871-1.161-7.895-3.481s-3.037-5.64-3.037-9.959v-63.238c0-4.372 1.013-7.665 3.037-9.878 2.024-2.213 4.656-3.32 7.895-3.32 3.238 0 5.91 1.107 8.016 3.32C322.815 220.757 323.867 223.834 323.867 227.774zM406.781 240.567l-40.484 45.262h43.319c3.508 0 6.153.824 7.935 2.469 1.781 1.648 2.672 3.765 2.672 6.356 0 2.483-.878 4.508-2.632 6.073-1.755 1.566-4.412 2.348-7.975 2.348h-59.919c-4.21 0-7.355-.917-9.432-2.753-2.079-1.835-3.118-4.345-3.118-7.53 0-1.889.729-3.792 2.186-5.708 1.457-1.915 4.48-5.438 9.069-10.567 4.858-5.397 9.271-10.283 13.239-14.656 3.967-4.372 7.652-8.461 11.052-12.267s6.221-7.031 8.461-9.676c2.239-2.644 4.034-4.911 5.384-6.801h-32.874c-4.535 0-7.963-.405-10.283-1.215-2.321-.81-3.482-2.941-3.482-6.396 0-2.537.877-4.561 2.632-6.073 1.753-1.511 4.25-2.267 7.49-2.267h50.769c4.696 0 8.299.689 10.809 2.065 2.51 1.376 3.766 3.846 3.766 7.409 0 1.188-.243 2.416-.729 3.684-.486 1.269-1.026 2.307-1.62 3.117-.595.81-1.404 1.795-2.429 2.955C409.561 237.558 408.292 238.947 406.781 240.567z" class="color474747 svgShape"></path>
  <path fill="none" stroke="#F2ECE9" stroke-linecap="round" stroke-linejoin="round" stroke-miterlimit="10" stroke-width="15" d="
		M250.44,41.647c-126.274,0-228.64,90.973-228.64,203.195c0,63.922,33.223,120.939,85.15,158.188l-15.466,67.323l71.113-37.865
		c27.047,10.012,56.716,15.549,87.844,15.549c126.275,0,228.64-90.973,228.64-203.195S376.715,41.647,250.44,41.647z" class="colorStroke474747 svgStroke"></path>
</svg>
