<svg xmlns="http://www.w3.org/2000/svg" viewBox="0 0 64 64" id="rating">
  <path fill="#00cafa" d="M20 42v18c0 1.66-1.34 3-3 3h-7V39h7c1.66 0 3 1.34 3 3Z" class="color0061fa svgShape"></path>
  <path fill="#0097bb" d="M20 60c0 1.66-1.34 3-3 3h-7V39h3v17c0 2.21 1.79 4 4 4h3Z" class="color0049bb svgShape"></path>
  <path fill="#8bcad9" d="M20 56v2h-3c-.55 0-1-.45-1-1s.45-1 1-1h3Z" class="colorffeadc svgShape"></path>
  <path fill="#2bd6ff" d="m32 1 1.766 2.972L37 4.82l-2.143 2.684L35.09 11 32 9.687 28.91 11l.233-3.496L27 4.82l3.234-.848L32 1z" class="colorff2b4a svgShape"></path>
  <path fill="#0abbe5" d="M35.09 11 32 9.69 28.91 11l.23-3.5L27 4.82l3.09-.81a5.985 5.985 0 0 0 4.86 4.89l.14 2.1Z" class="colore50a34 svgShape"></path>
  <path fill="#2bd6ff" d="m53 4 1.766 2.972L58 7.82l-2.143 2.684L56.09 14 53 12.687 49.91 14l.233-3.496L48 7.82l3.234-.848L53 4zM11 4 9.234 6.972 6 7.82l2.143 2.684L7.91 14 11 12.687 14.09 14l-.233-3.496L16 7.82l-3.234-.848L11 4zM22 15l1.766 2.972L27 18.82l-2.143 2.684L25.09 25 22 23.687 18.91 25l.233-3.496L17 18.82l3.234-.848L22 15zM42 15l1.766 2.972L47 18.82l-2.143 2.684L45.09 25 42 23.687 38.91 25l.233-3.496L37 18.82l3.234-.848L42 15z" class="colorff2b4a svgShape"></path>
  <path fill="#8bcad9" d="M48 44v1.7c0 .1 0 .2-.01.3-.02.68-.13 1.36-.33 2-.02.08-.04.15-.07.23L46.67 51 46 53l-1 3-.67 2-.65 1.95A2.991 2.991 0 0 1 40.84 62H26.91c-.59 0-1.17-.18-1.67-.5l-1.74-1.16c-.32-.22-.71-.34-1.11-.34H20V42h2.81a2 2 0 0 0 1.76-1.05L31 29l1.91.76c1.79.72 2.82 2.61 2.44 4.5L34 41h11c1.66 0 3 1.34 3 3Z" class="colorfeb0a3 svgShape"></path>
  <path fill="#8bcad9" d="m44 58.99-.32.96A2.991 2.991 0 0 1 40.84 62H26.91c-.59 0-1.17-.18-1.67-.5l-1.74-1.16c-.32-.22-.71-.34-1.11-.34H20V42h2.81c.06 0 .13 0 .19-.01v12.62A2.389 2.389 0 0 0 25.39 57c.4 0 .79.12 1.11.34l1.74 1.16c.5.32 1.08.5 1.67.5h13.93c.05 0 .11 0 .16-.01Z" class="colore59e95 svgShape"></path>
  <path fill="#95d6e5" d="m45 56-.67 2H42c-.55 0-1-.45-1-1s.45-1 1-1h3zm1.67-5L46 53h-3c-.55 0-1-.45-1-1s.45-1 1-1h3.67zm1.32-5c-.02.68-.13 1.36-.33 2H44c-.55 0-1-.45-1-1s.45-1 1-1h3.99z" class="colore59e95 svgShape"></path>
  <path fill="#0abbe5" d="M14.09 14 11 12.69 7.91 14l.23-3.5L6 7.82l3.09-.81a5.985 5.985 0 0 0 4.86 4.89l.14 2.1zm11 11L22 23.69 18.91 25l.23-3.5L17 18.82l3.09-.81a5.985 5.985 0 0 0 4.86 4.89l.14 2.1zm20 0L42 23.69 38.91 25l.23-3.5L37 18.82l3.09-.81a5.985 5.985 0 0 0 4.86 4.89l.14 2.1zm11-11L53 12.69 49.91 14l.23-3.5L48 7.82l3.09-.81a5.985 5.985 0 0 0 4.86 4.89l.14 2.1z" class="colore50a34 svgShape"></path>
</svg>
