<svg width="35" height="47" viewBox="0 0 35 47" fill="none" xmlns="http://www.w3.org/2000/svg">
<path d="M34.5086 43.0377L28.0199 34.3883C30.5386 30.168 31.7583 24.8112 31.4283 19.4194C31.0983 14.0276 29.2436 9.01064 26.2456 5.40012C23.2477 1.7896 19.3342 -0.140058 15.3101 0.00792307C11.2859 0.155904 7.45691 2.37028 4.61033 6.19572C1.76376 10.0212 0.116011 15.1669 0.00589568 20.5749C-0.10422 25.9829 1.33167 31.242 4.01831 35.2709C6.70496 39.2998 10.4381 41.7923 14.4503 42.2358C18.4624 42.6793 22.4484 41.0401 25.5889 37.6553L32.025 46.3048C32.1876 46.5251 32.3811 46.6999 32.5942 46.8192C32.8073 46.9386 33.0359 47 33.2668 47C33.4977 47 33.7263 46.9386 33.9394 46.8192C34.1525 46.6999 34.346 46.5251 34.5086 46.3048C34.8238 45.8665 35 45.2808 35 44.6712C35 44.0617 34.8238 43.476 34.5086 43.0377ZM15.7772 37.6553C13.3558 37.6553 10.9888 36.6904 8.9755 34.8826C6.9622 33.0747 5.39302 30.5051 4.4664 27.4988C3.53977 24.4925 3.29733 21.1844 3.76971 17.9929C4.2421 14.8013 5.40811 11.8697 7.12029 9.56879C8.83246 7.26784 11.0139 5.70087 13.3888 5.06603C15.7636 4.4312 18.2252 4.75702 20.4623 6.00229C22.6993 7.24756 24.6114 9.35634 25.9566 12.062C27.3019 14.7676 28.0199 17.9486 28.0199 21.2026C28.0199 25.5661 26.7301 29.751 24.4341 32.8364C22.1382 35.9219 19.0242 37.6553 15.7772 37.6553Z" fill="white"/>
</svg>
