<svg xmlns="http://www.w3.org/2000/svg" viewBox="0 0 68 68" id="RouteLocationTrack">
  <path d="M33.05 2.335c-4.42 0-7.26 4.678-5.23 8.61l4.34 8.37c.17.33.52.54.89.54s.72-.21.89-.54l4.34-8.37c2.027-3.926-.806-8.61-5.23-8.61zm0 7.34c-.86 0-1.56-.7-1.56-1.56 0-.86.7-1.56 1.56-1.56s1.56.7 1.56 1.56c0 .86-.7 1.56-1.56 1.56zM12.3 22.195c-5.486 0-8.992 5.806-6.48 10.66l5.59 10.77a.997.997 0 0 0 1.77 0l5.59-10.77c2.532-4.83-1.013-10.66-6.47-10.66zm0 10.11c-1.64 0-2.96-1.33-2.96-2.97 0-1.63 1.32-2.95 2.96-2.95 1.63 0 2.95 1.32 2.95 2.95a2.96 2.96 0 0 1-2.95 2.97zm40.37-3.22c-6.998 0-11.548 7.431-8.3 13.67l7.41 14.3c.17.33.52.54.89.54s.72-.21.89-.54l7.42-14.3c3.23-6.184-1.277-13.67-8.31-13.67zm0 13.38a4.22 4.22 0 0 1-4.22-4.22c0-2.33 1.89-4.21 4.22-4.21s4.21 1.88 4.21 4.21-1.88 4.22-4.21 4.22z" fill="#F2ECE9" class="color000000 svgShape"></path>
  <path d="m58.148 52.556-2.812 5.42a3.025 3.025 0 0 1-2.666 1.619 3.027 3.027 0 0 1-2.668-1.625l-2.807-5.415C42.37 53.627 39.33 56 39.33 58.815c0 .11 0 .22.02.33l-22.74-8.39c3.59-.82 5.98-2.67 5.98-4.93 0-1.23-.7-2.34-1.95-3.24l13.99-16.43c3.87-.37 6.64-2.12 6.64-4.35 0-1.725-1.664-3.176-4.34-3.912l-1.215 2.342a3.024 3.024 0 0 1-2.665 1.62 3.028 3.028 0 0 1-2.669-1.624l-1.211-2.338c-2.675.737-4.34 2.187-4.34 3.912 0 2.32 2.99 4.12 7.13 4.39l-13.12 15.41a13.358 13.358 0 0 0-2.017-.656l-1.867 3.597a2.977 2.977 0 0 1-2.656 1.62 2.99 2.99 0 0 1-2.669-1.625l-1.865-3.595C4.219 41.818 2 43.65 2 45.825c0 3.04 4.33 5.35 10.1 5.39l28.47 10.52c2.09 2.34 6.67 3.93 12.1 3.93 7.48 0 13.33-3.01 13.33-6.85 0-2.814-3.038-5.186-7.852-6.26z" fill="#F2ECE9" class="color000000 svgShape"></path>
</svg>
