<svg width="20" height="20" viewBox="0 0 20 20" fill="none" xmlns="http://www.w3.org/2000/svg">
<path d="M7.44245 3.44307C8.26178 3.14357 9.12769 2.99147 10.0001 2.99385C13.6387 2.99385 17.0557 5.67061 18.9561 9.99385C18.4915 11.0673 17.8965 12.0795 17.1846 13.0075C17.1163 13.0955 17.0793 13.2037 17.0795 13.315C17.0799 13.5911 17.3041 13.8146 17.5801 13.8142C17.7348 13.8145 17.8809 13.7431 17.9756 13.6209C18.7828 12.5672 19.4502 11.4133 19.9611 10.1882C20.0135 10.0636 20.0131 9.92293 19.9601 9.79854C17.9181 4.98409 14.1016 1.99385 10.0001 1.99385C9.00965 1.99117 8.02661 2.16444 7.09674 2.50557C6.83783 2.60103 6.70538 2.88826 6.80084 3.14717C6.8963 3.40608 7.18353 3.53853 7.44245 3.44307ZM11.0284 6.13057C10.7614 6.05989 10.4877 6.21907 10.4171 6.48604C10.3464 6.75301 10.5056 7.02669 10.7725 7.09737C11.8121 7.3766 12.6226 8.19118 12.8965 9.23213C12.9549 9.45125 13.1532 9.6039 13.3799 9.6042C13.4232 9.60439 13.4662 9.59883 13.5079 9.5876C13.7747 9.51668 13.9337 9.24318 13.8634 8.97627C13.497 7.58797 12.4153 6.50221 11.0284 6.13057ZM0.853517 0.140396C0.659792 -0.0467987 0.352602 -0.0467987 0.158815 0.140396C-0.0397934 0.33223 -0.0452865 0.648758 0.146547 0.847366L3.7923 4.49312C2.15845 5.95711 0.862428 7.76082 0.0390641 9.79951C-0.0133651 9.92415 -0.0129989 10.0648 0.0400407 10.1892C2.08203 15.0036 5.8985 17.9939 10.0001 17.9939C11.9681 17.967 13.8693 17.3132 15.4435 16.1443L19.1465 19.8474C19.2402 19.9413 19.3674 19.994 19.5001 19.9939C19.6326 19.9938 19.7596 19.9412 19.8534 19.8475C20.0487 19.6522 20.0488 19.3356 19.8535 19.1404L0.853517 0.140396ZM7.5622 8.26302L11.7309 12.4317C11.2294 12.7937 10.627 12.9972 10.0001 12.9939C8.34394 12.992 7.00189 11.65 7.00006 9.99385C6.99671 9.36696 7.2002 8.76448 7.5622 8.26302ZM10.0001 16.9939C6.36139 16.9939 2.9444 14.3171 1.04498 9.99385C1.8161 8.15108 3.00604 6.5215 4.49756 5.19838L6.85565 7.55647C6.3103 8.25032 5.99603 9.10158 6.00006 9.99385C6.00226 12.2021 7.79181 13.9917 10.0001 13.9939C10.8924 13.9987 11.7439 13.6843 12.4375 13.1383L14.7302 15.431C13.3513 16.4167 11.7037 16.9671 10.0001 16.9939Z" fill="#78BED8"/>
</svg>
