<svg width="24" height="24" viewBox="0 0 24 24" fill="none" xmlns="http://www.w3.org/2000/svg">
<path d="M12.0001 8C9.79089 8 8.00006 9.79083 8.00006 12C8.00006 14.2092 9.79089 16 12.0001 16C14.2083 15.9978 15.9979 14.2083 16.0001 12C16.0001 9.79083 14.2092 8 12.0001 8ZM12.0001 15C10.3432 15 9.00006 13.6569 9.00006 12C9.00006 10.3431 10.3432 9 12.0001 9C13.6562 9.00183 14.9982 10.3439 15.0001 12C15.0001 13.6569 13.6569 15 12.0001 15ZM21.9601 11.8047C19.919 6.99023 16.1026 4 12.0001 4C7.89752 4 4.08112 6.99023 2.04004 11.8047C1.98633 11.9294 1.98633 12.0706 2.04004 12.1953C4.08112 17.0098 7.89752 20 12.0001 20C16.1026 20 19.9191 17.0098 21.9601 12.1953C22.0138 12.0706 22.0138 11.9294 21.9601 11.8047ZM12.0001 19C8.36041 19 4.9444 16.3232 3.04498 12C4.9444 7.67676 8.36041 5 12.0001 5C15.6397 5 19.0557 7.67676 20.9551 12C19.0557 16.3232 15.6397 19 12.0001 19Z" fill="#78BED8"/>
</svg>
